<svg width="30" height="26" viewBox="0 0 30 26" fill="none" xmlns="http://www.w3.org/2000/svg">
<path fill-rule="evenodd" clip-rule="evenodd" d="M15 3C9.48566 3 5 7.48609 5 13C5 18.5139 9.48566 23 15 23C20.5143 23 25 18.5139 25 13C25 7.48609 20.5143 3 15 3ZM13.1421 8.89965L18.9754 12.6496C19.0943 12.7262 19.1667 12.8584 19.1667 13C19.1667 13.1416 19.0943 13.2739 18.9754 13.3504L13.1421 17.1003C13.0738 17.1447 12.9948 17.1667 12.9167 17.1667C12.8483 17.1667 12.7791 17.1496 12.7173 17.1158C12.583 17.0426 12.5 16.9026 12.5 16.75V9.25C12.5 9.09742 12.583 8.95742 12.7173 8.88418C12.8491 8.81176 13.0143 8.81625 13.1421 8.89965Z" fill="#0D9FEC"/>
</svg>
