<svg width="24" height="24" viewBox="0 0 24 24" fill="none" xmlns="http://www.w3.org/2000/svg">
<g clip-path="url(#clip0)">
<path d="M22.0472 18.4774L21.7861 18.4175C24.3166 16.3444 24.8558 11.7411 22.4723 9.34258C21.5552 8.42009 21.0073 6.96019 21.0073 5.43693C21.0073 3.22904 19.5549 1.4324 17.7693 1.4324C15.9842 1.4324 14.5312 3.22904 14.5312 5.43693C14.5312 5.93864 14.4719 6.43303 14.3591 6.90361C12.6956 4.98356 10.0539 4.76347 8.28748 5.99083V1.48715C8.28748 1.29196 8.12909 1.13357 7.93408 1.13357C7.73889 1.13357 7.5805 1.29196 7.5805 1.48715V2.87546C6.52453 0.970423 4.60302 0.460838 2.45115 0.894067C2.23381 0.938013 2.10984 1.16946 2.19371 1.3749C2.21348 1.42306 2.68974 2.57095 3.60985 3.57602C4.69878 4.76566 6.05029 5.35636 7.5805 4.93266V5.99083C5.5039 4.54795 2.0269 5.06596 0.598486 8.35601C0.520849 8.53508 0.603247 8.74291 0.782324 8.82073C0.961585 8.89855 1.16941 8.81652 1.24723 8.63726C2.55443 5.62699 5.68023 5.38383 7.33807 6.68956C7.68323 6.97996 8.18659 6.9785 8.52991 6.68956C10.4172 5.2031 13.6821 5.85002 14.8009 9.10253C15.4024 10.8543 15.2821 12.6863 14.2381 14.5812C13.8228 15.3241 13.4815 15.9417 13.1995 16.4561C11.0099 15.9844 10.6973 15.8119 9.9521 15.828C9.7569 15.8319 9.60181 15.993 9.60602 16.1882C9.60987 16.3839 9.77064 16.5394 9.96674 16.5346C10.0949 16.5319 10.2405 16.5385 10.3941 16.5573L10.1821 18.4616C10.1605 18.6555 10.3002 18.8304 10.4943 18.852C10.6891 18.8736 10.8632 18.7332 10.8848 18.5398L11.0899 16.6989C12.5022 17.0213 13.4214 17.2315 14.5166 17.482L14.4155 18.39C14.3939 18.5841 14.5336 18.759 14.7277 18.7806C14.9225 18.8022 15.0966 18.6618 15.1183 18.4682L15.2104 17.6404C15.4288 17.6904 20.447 18.8366 20.5098 18.8511L20.2368 21.3023C20.2152 21.4964 20.3551 21.6713 20.549 21.6929C20.744 21.7145 20.918 21.5741 20.9396 21.3807L21.2038 19.0097L21.8899 19.1666C22.7404 19.3607 23.3022 20.1508 23.2051 21.0182C23.109 21.8808 22.3815 22.5328 21.5138 22.5346L17.8949 22.5416L18.0234 21.3888C18.045 21.1947 17.9053 21.0198 17.7112 20.9982C17.5169 20.9768 17.3423 21.1163 17.3207 21.3104L17.1833 22.5431L13.7149 22.5497L13.8356 21.4659C13.8572 21.2719 13.7175 21.0971 13.5234 21.0755C13.3299 21.0537 13.1544 21.1936 13.1328 21.3877C13.1028 21.6577 13.0063 22.5224 13.0034 22.5511L11.3428 22.5542L11.553 20.6677C11.5746 20.4738 11.4349 20.2989 11.2408 20.2773C11.0465 20.2555 10.8718 20.3954 10.8502 20.5895L10.6311 22.5557C10.6276 22.5557 10.625 22.5557 10.623 22.5557C10.6228 22.5557 10.6224 22.5557 10.6223 22.5557C10.6217 22.5557 10.6212 22.5557 10.6206 22.5557C10.6206 22.5557 10.6204 22.5557 10.6202 22.5557C10.6195 22.5557 10.6192 22.5557 10.6184 22.5557C10.5955 22.5557 10.4846 22.5559 10.0328 22.5568C8.64508 22.5568 7.45544 21.6101 7.11725 20.302C6.77026 18.9659 7.37781 17.474 8.74543 16.8241C8.92176 16.7403 8.99701 16.5295 8.91315 16.3532C8.82929 16.1768 8.61853 16.1014 8.4422 16.1854C7.75299 16.5125 7.1969 17.0283 6.82684 17.6589C6.11126 17.302 5.29278 16.7406 4.85625 15.9139C4.2921 14.8422 2.66502 15.2446 2.65953 16.4546L1.55174 14.4406C0.792395 13.0609 0.514257 11.5124 0.844764 9.91424C0.884314 9.72289 0.761267 9.53576 0.569921 9.49621C0.378575 9.45666 0.191807 9.57971 0.152256 9.77105C-0.202237 11.486 0.0669288 13.2089 0.931922 14.7816L2.44236 17.5269L1.33549 17.4035C0.694983 17.3322 0.118748 17.7926 0.0475195 18.4334C-0.0235257 19.0723 0.437902 19.6502 1.07713 19.7214L2.90983 19.9254C2.45536 20.3322 2.08952 20.701 2.13548 21.2826C2.21495 22.3105 3.50822 22.7388 4.18407 21.9496C4.74035 21.2987 5.60955 20.8966 6.49066 20.6796C6.96966 22.1769 8.37628 23.264 10.0328 23.264C10.5715 23.2629 20.8641 23.2431 21.5147 23.2418C22.8512 23.2392 23.9231 22.1562 23.9231 20.8272C23.9229 19.6959 23.1517 18.7295 22.0472 18.4774ZM3.0413 1.51077C5.3922 1.18978 6.87463 2.31021 7.36975 4.25718C5.45446 4.7728 3.94823 3.2587 3.0413 1.51077ZM20.8639 18.2067L13.9189 16.62C14.1196 16.2523 14.3422 15.8465 14.5902 15.4001C15.245 16.528 16.4657 17.2879 17.8606 17.2879C19.6553 17.2879 21.2133 16.0124 21.5649 14.255C21.6031 14.0636 21.4786 13.8774 21.2873 13.8393C21.0954 13.801 20.9097 13.925 20.8714 14.1163C20.5858 15.5442 19.3196 16.5809 17.8606 16.5809C16.569 16.5809 15.4612 15.7791 15.0082 14.6472C15.5956 13.5291 15.877 12.3477 15.8675 11.1758C17.6415 9.65899 20.3765 10.6157 20.8616 12.8568C20.9031 13.0477 21.0906 13.169 21.2822 13.1274C21.4729 13.086 21.5942 12.8978 21.5526 12.707C21.3732 11.8768 20.9092 11.122 20.2478 10.5818C18.9911 9.55627 17.1949 9.44054 15.8115 10.3378C15.6938 9.4085 15.3849 8.44005 14.8914 7.63329C15.1181 6.94975 15.2384 6.20579 15.2384 5.43693C15.2384 3.80564 16.2544 2.13956 17.7693 2.13956C19.268 2.13956 20.3002 3.7833 20.3002 5.43693C20.3002 7.16801 20.9092 8.77312 21.9708 9.84136C23.8121 11.6929 23.634 15.1306 22.0345 17.1555C21.687 17.5954 21.2915 17.9489 20.8639 18.2067ZM6.34014 19.9834C5.33288 20.2284 4.31371 20.71 3.64665 21.49C3.48204 21.6825 3.19163 21.705 2.99937 21.5406C2.80656 21.3752 2.78404 21.0859 2.94902 20.8936C3.25682 20.5338 3.6256 20.2207 4.01799 19.9688C4.29631 19.7888 4.19542 19.3572 3.86528 19.3208C3.55913 19.2865 1.38694 19.0443 1.15531 19.0185C0.90409 18.9906 0.722082 18.763 0.749915 18.5118C0.777747 18.2633 1.00022 18.0786 1.25712 18.1064C1.25858 18.1066 1.26005 18.1066 1.26133 18.1068C1.2606 18.1068 1.25987 18.1066 1.25932 18.1066C1.26096 18.1068 1.26371 18.1071 1.26774 18.1075C1.26756 18.1075 1.26737 18.1075 1.26701 18.1075C1.27085 18.1079 1.2736 18.1081 1.27525 18.1084C1.27396 18.1082 1.27213 18.1081 1.27012 18.1077C1.34245 18.1157 1.76487 18.1628 3.71916 18.3807C3.83159 18.3736 4.17418 18.5191 4.32396 18.2119C4.38951 18.0771 4.36315 17.9163 4.25841 17.8094C3.91527 17.4595 3.63292 17.0768 3.41942 16.6723C3.30113 16.4484 3.38737 16.1702 3.61076 16.052H3.61131C3.83727 15.9331 4.11266 16.0205 4.23113 16.2439C4.75206 17.231 5.70751 17.8876 6.52966 18.2963C6.34198 18.8256 6.27185 19.4138 6.34014 19.9834Z" fill="#333333"/>
</g>
<defs>
<clipPath id="clip0">
<rect width="24" height="24" fill="white"/>
</clipPath>
</defs>
</svg>
