<svg width="24" height="24" viewBox="0 0 24 24" fill="none" xmlns="http://www.w3.org/2000/svg">
<path d="M12.0093 23C8.64878 23 5.58647 21.2838 3.81192 18.4118C3.80123 18.3983 3.79186 18.3834 3.78384 18.3712C3.56453 18.0147 3.3626 17.6259 3.16335 17.1831C2.62176 15.9259 2.34896 14.604 2.34896 13.2456C2.33425 13.1849 1.86621 10.0144 1.86621 8.36977C1.86621 3.66003 6.01171 3.08349 6.97988 3.01327C7.49607 2.54743 9.36823 1.05264 12.0107 1.05264C16.223 1.05264 22.1551 3.32249 22.1551 8.36846C22.1551 9.98473 21.6871 13.1835 21.667 13.3186C21.671 14.6013 21.3995 15.9259 20.8606 17.1844C20.644 17.6637 20.4086 18.1025 20.1559 18.4968C20.1372 18.5252 20.1158 18.5522 20.0917 18.5778C18.3707 21.3162 15.3297 23 12.0093 23ZM4.58619 17.8257C4.59689 17.8406 4.60625 17.8527 4.61428 17.8649C6.20963 20.4695 8.97374 22.0237 12.0093 22.0237C14.9968 22.0237 17.7328 20.5128 19.3308 17.9769C19.3509 17.9486 19.3723 17.9189 19.3977 17.8946C19.5715 17.6111 19.7841 17.214 19.9767 16.7887C20.4594 15.6599 20.7055 14.4649 20.7055 13.2442C20.7149 13.1416 21.1883 9.91177 21.1883 8.36705C21.1883 3.99487 15.8205 2.02752 12.0093 2.02752C9.34148 2.02752 7.53886 3.8167 7.52147 3.8356C7.43054 3.92742 7.30751 3.97735 7.18047 3.97735C7.00262 3.9787 2.83305 4.04624 2.83305 8.36846C2.83305 9.94287 3.30644 13.1389 3.31045 13.1727C3.3158 14.469 3.56185 15.6613 4.04861 16.7861C4.21844 17.1709 4.3963 17.5138 4.58619 17.8257Z" fill="#333333"/>
<path d="M21.1684 16.1703C21.0574 16.1703 20.9437 16.1608 20.8314 16.15C20.5653 16.123 20.3714 15.8854 20.3968 15.6153C20.4235 15.3493 20.6562 15.163 20.925 15.1778C21.0066 15.1859 21.0881 15.1954 21.1684 15.1954C21.968 15.1954 22.6179 14.5392 22.6179 13.7317C22.6179 12.9877 22.0697 12.3639 21.3435 12.2748C21.0788 12.2451 20.8889 12.0007 20.921 11.7333C20.9531 11.466 21.1951 11.2688 21.4585 11.308C22.6701 11.4525 23.5834 12.4962 23.5834 13.7317C23.5834 15.0766 22.4989 16.1703 21.1684 16.1703Z" fill="#333333"/>
<path d="M2.83159 16.1702C1.49968 16.1702 0.416504 15.0765 0.416504 13.7316C0.416504 12.4853 1.34055 11.4429 2.56548 11.3065C2.83828 11.2822 3.06828 11.4699 3.09904 11.7359C3.12846 12.0032 2.93589 12.245 2.67245 12.2747C1.949 12.3544 1.38334 12.9944 1.38334 13.7303C1.38334 14.5378 2.03325 15.194 2.83159 15.194C2.90915 15.194 2.98136 15.1872 3.04288 15.1751C3.3023 15.113 3.5604 15.2898 3.61255 15.5531C3.66738 15.8178 3.49755 16.073 3.23678 16.1297C3.11108 16.1581 2.97468 16.1702 2.83159 16.1702Z" fill="#333333"/>
<path d="M12.009 19.1206C11.0195 19.1206 10.0299 18.7411 9.27569 17.9796C9.08714 17.7892 9.08714 17.48 9.27569 17.2896C9.46425 17.0992 9.77048 17.0992 9.95903 17.2896C11.0904 18.4306 12.9277 18.4306 14.0591 17.2896C14.2476 17.0992 14.5538 17.0992 14.7424 17.2896C14.931 17.48 14.931 17.7892 14.7424 17.9796C13.9882 18.7398 12.9986 19.1206 12.009 19.1206Z" fill="#333333"/>
<path d="M8.16743 13.197C7.98021 13.197 7.8291 13.3495 7.8291 13.5399V13.9315C7.8291 14.1219 7.98021 14.2744 8.16743 14.2744C8.35598 14.2744 8.50709 14.1219 8.50709 13.9315V13.5399C8.50842 13.3495 8.35598 13.197 8.16743 13.197Z" fill="#333333"/>
<path d="M8.16728 14.5189C7.84768 14.5189 7.58691 14.2556 7.58691 13.9302V13.5386C7.58691 13.2146 7.84768 12.9513 8.16728 12.9513C8.48822 12.9513 8.74899 13.2132 8.74899 13.5386V13.9302C8.74899 14.2556 8.48822 14.5189 8.16728 14.5189ZM8.16728 13.4401C8.11245 13.4401 8.06966 13.4846 8.06966 13.5386V13.9302C8.06966 14.0382 8.26624 14.0382 8.26624 13.9302V13.5386C8.26624 13.486 8.22211 13.4401 8.16728 13.4401Z" fill="#333333"/>
<path d="M15.8686 13.1754C15.6814 13.1754 15.5303 13.328 15.5303 13.5184V13.91C15.5303 14.099 15.6814 14.2529 15.8686 14.2529C16.0572 14.2529 16.2083 14.099 16.2083 13.91V13.5184C16.2083 13.328 16.0572 13.1754 15.8686 13.1754Z" fill="#333333"/>
<path d="M15.8685 14.4973C15.5488 14.4973 15.2881 14.234 15.2881 13.9099V13.5183C15.2881 13.1942 15.5488 12.9296 15.8685 12.9296C16.1894 12.9296 16.4502 13.1929 16.4502 13.5183V13.9099C16.4502 14.2327 16.1894 14.4973 15.8685 14.4973ZM15.8685 13.4184C15.815 13.4184 15.7708 13.4629 15.7708 13.5183V13.9099C15.7708 14.018 15.9661 14.018 15.9661 13.9099V13.5183C15.9674 13.4629 15.9233 13.4184 15.8685 13.4184Z" fill="#333333"/>
<path d="M21.4463 15.0604L20.2013 10.6706C20.1425 10.4613 19.9539 10.3169 19.7373 10.3169C9.74664 10.3182 8.65542 6.87096 8.6474 6.84395C8.58856 6.6036 8.36257 6.44022 8.11919 6.47803C7.87581 6.50639 7.67923 6.71707 7.69394 6.96147C7.82633 9.10705 4.68644 10.1913 4.68644 10.1913C4.55272 10.2777 4.46045 10.4222 4.46045 10.5937C4.46045 10.8624 4.67709 11.0811 4.9432 11.0811C5.03413 11.0811 5.2374 11.0082 5.26013 11.0001C6.26174 10.6112 7.83568 9.77944 8.42542 8.24688C9.55272 9.47563 12.3824 11.2324 19.3722 11.2932L20.5169 15.3305C20.5771 15.5438 20.771 15.6829 20.9809 15.6829C21.0237 15.6829 21.0692 15.6775 21.1133 15.6653C21.3714 15.5897 21.5199 15.321 21.4463 15.0604Z" fill="#333333"/>
</svg>
