<svg width="24" height="24" viewBox="0 0 24 24" fill="none" xmlns="http://www.w3.org/2000/svg">
<path d="M21.9987 17.6382L21.9935 11.7459C21.9924 10.9868 21.3582 10.3742 20.5759 10.3722C19.8875 10.3722 19.2982 10.8513 19.1803 11.5083L18.3939 15.8257C18.0757 15.7863 17.7545 15.8621 17.4916 16.0421L14.8089 17.8717C14.7202 17.9323 14.667 18.0294 14.667 18.1365V21.6775C14.667 21.8564 14.8172 22 15.0008 22H18.3334C18.5169 22 18.6661 21.8554 18.6661 21.6775V21.2702L20.8607 19.9156C21.6013 19.3829 22.0258 18.5318 21.9987 17.6382ZM20.4956 19.3738L18.154 20.8183C18.058 20.879 17.9996 20.9811 17.9996 21.0922V21.3561H15.3335V18.3033L17.8744 16.5717C18.1508 16.3827 18.5326 16.4474 18.7266 16.7163C18.9175 16.9791 18.858 17.34 18.5931 17.533L16.799 18.836L17.1985 19.3526L18.9926 18.0486C19.5579 17.6392 19.6716 16.8618 19.2481 16.314C19.2116 16.2664 19.172 16.223 19.1292 16.1805C19.0948 16.1482 19.0593 16.1168 19.0207 16.0875L19.8333 11.6216C19.9053 11.2243 20.2954 10.9615 20.7042 11.0312C21.0631 11.0929 21.3249 11.3941 21.3249 11.7469L21.3301 17.6402C21.3603 18.3155 21.0485 18.9624 20.4956 19.3738Z" fill="#333333"/>
<path d="M9.19307 17.8717L6.5103 16.0421C6.24849 15.8621 5.92618 15.7863 5.60805 15.8257L4.82158 11.5083C4.68598 10.7613 3.95061 10.263 3.17875 10.3934C2.5018 10.5086 2.00739 11.0788 2.00635 11.7459L2.00113 17.6392C1.97505 18.5358 2.40271 19.387 3.14746 19.9197L5.33476 21.2691V21.6765C5.33476 21.8554 5.48392 21.9989 5.66854 21.9989H9.00114C9.18472 21.9989 9.33387 21.8544 9.33387 21.6765V18.1355C9.33492 18.0294 9.28173 17.9313 9.19307 17.8717ZM8.6684 21.3551H6.00232V21.0913C6.00232 20.9811 5.94392 20.878 5.849 20.8173L3.51358 19.3779C2.95658 18.9664 2.64261 18.3165 2.66973 17.6382L2.67391 11.7449C2.67391 11.3436 3.01082 11.0171 3.42596 11.0171C3.79103 11.0171 4.10187 11.2718 4.16549 11.6196L4.97908 16.0855C4.94153 16.1138 4.90502 16.1461 4.8706 16.1785C4.37097 16.6627 4.37097 17.4481 4.8706 17.9313C4.91337 17.9737 4.95926 18.0112 5.00725 18.0456L6.80132 19.3495L7.20081 18.833L5.40673 17.53C5.13658 17.3329 5.0813 16.9609 5.2847 16.6991C5.48288 16.4423 5.85526 16.3847 6.12645 16.5697L8.66736 18.3013V21.3551H8.6684Z" fill="#333333"/>
<path d="M11.9844 15.856C15.6476 15.856 18.6173 12.9781 18.6173 9.42802C18.6173 5.87793 15.6476 3 11.9844 3C8.32119 3 5.35156 5.87793 5.35156 9.42802C5.35156 12.9781 8.32119 15.856 11.9844 15.856Z" stroke="#333333" stroke-width="0.75" stroke-linecap="round" stroke-linejoin="round" stroke-dasharray="1.02 2.05"/>
<path d="M10.0013 7.2021C10.1862 7.2021 10.3362 7.05052 10.3362 6.8635C10.3362 6.67648 10.1862 6.52484 10.0013 6.52484C9.81641 6.52484 9.6665 6.67648 9.6665 6.8635C9.6665 7.05052 9.81641 7.2021 10.0013 7.2021Z" fill="#333333"/>
<path d="M14.0057 10.6562C14.1906 10.6562 14.3405 10.5046 14.3405 10.3176C14.3405 10.1306 14.1906 9.97892 14.0057 9.97892C13.8208 9.97892 13.6709 10.1306 13.6709 10.3176C13.6709 10.5046 13.8208 10.6562 14.0057 10.6562Z" fill="#333333"/>
<path d="M14.6558 8.13913C14.6735 8.31502 14.8456 8.44544 15.0365 8.43028C15.2295 8.41411 15.3703 8.25943 15.3526 8.08354C15.3348 7.90462 15.1638 7.77525 14.9718 7.79042C14.7809 7.80558 14.6381 7.96021 14.6558 8.13913Z" fill="#333333"/>
<path d="M9.34956 10.7158C9.34852 10.5318 9.18579 10.3802 8.99178 10.3782C8.79569 10.3752 8.63715 10.5228 8.63819 10.7067C8.63819 10.8938 8.79883 11.0423 8.99597 11.0474C9.18998 11.0494 9.34956 10.9028 9.34956 10.7158Z" fill="#333333"/>
<path d="M16.9995 8.11288C16.9995 7.12124 16.3643 6.05782 15.315 5.87789C15.2138 4.77606 14.2677 3.92699 13.1266 3.91486C12.7303 3.91385 12.3402 4.01794 12.0001 4.21607C11.6601 4.01794 11.271 3.91385 10.8736 3.91486C9.69598 3.93103 8.72176 4.80846 8.62058 5.94668C7.64636 6.24387 6.98819 7.12431 6.99966 8.11393C6.99966 8.57387 7.14151 9.02367 7.40854 9.40477C7.14151 9.78687 6.99966 10.2357 6.99966 10.6967C6.99966 11.6883 7.63593 12.7517 8.68421 12.9316C8.78539 14.0335 9.73041 14.8826 10.8726 14.8947C11.2689 14.8957 11.658 14.7916 11.9991 14.5935C12.3391 14.7916 12.7292 14.8957 13.1256 14.8947C14.3032 14.8786 15.2774 14.0001 15.3776 12.8619C16.3518 12.5647 17.0089 11.6853 16.9974 10.6957C16.9974 10.2347 16.8556 9.78588 16.5896 9.40378C16.8577 9.02269 17.0006 8.57282 16.9995 8.11288ZM15.9199 9.61503C16.187 9.91627 16.333 10.3004 16.333 10.6957C16.3476 11.47 15.7844 12.1422 14.9989 12.2867C14.8362 12.3261 14.7225 12.4697 14.7246 12.6344C14.7423 13.5058 14.0278 14.2286 13.1277 14.2498C12.8471 14.2478 12.5728 14.172 12.3349 14.0284C12.3349 14.0284 12.3349 13.4613 12.3349 13.4583V13.4563C12.3255 13.2672 12.1774 13.1156 11.9928 13.1186C11.803 13.1217 11.6538 13.2824 11.6569 13.4775L11.6684 14.0284C11.4296 14.172 11.1552 14.2478 10.8757 14.2498C10.0934 14.2316 9.44669 13.6564 9.36116 12.9044C10.0684 12.7133 10.4835 12.0037 10.2874 11.3173C10.1278 10.7583 9.60107 10.3722 9.00235 10.3722V11.0191C9.37055 11.0191 9.66886 11.3082 9.66886 11.666C9.66886 12.0239 9.37055 12.312 9.00235 12.312C8.20441 12.312 7.66931 11.477 7.66931 10.6967C7.66826 10.3004 7.81534 9.91725 8.08236 9.61602C8.19084 9.49472 8.19084 9.31482 8.08236 9.19351C7.81534 8.89329 7.66826 8.50917 7.66931 8.11393C7.65366 7.33861 8.21796 6.66736 9.00339 6.52281C9.16715 6.48339 9.28085 6.33884 9.27876 6.17509C9.26103 5.30373 9.97448 4.58099 10.8757 4.56077C11.1563 4.56178 11.4296 4.63761 11.6684 4.78115V6.82205C11.6684 7.17888 11.3701 7.46901 11.0019 7.46901C10.6337 7.46901 10.3354 7.17888 10.3354 6.82205H9.66886C9.6699 7.5347 10.2665 8.11292 11.0019 8.11393C11.2366 8.11191 11.4671 8.05021 11.6684 7.93396L11.6778 12.3676C11.7143 12.5243 11.8447 12.6446 12.0074 12.6415C12.167 12.6385 12.2922 12.5213 12.3276 12.3676L12.3349 10.3742C12.3349 10.0163 12.6333 9.72825 13.0015 9.72825C13.3697 9.72825 13.668 10.0163 13.668 10.3742H14.3345C14.3335 9.6605 13.7368 9.08335 13.0015 9.08233C12.7668 9.08335 12.5373 9.146 12.3349 9.26225V4.78115C12.5738 4.63761 12.8481 4.56178 13.1277 4.56077C13.9089 4.57795 14.5567 5.15312 14.6422 5.90621C13.934 6.09625 13.5199 6.80586 13.716 7.49122C13.8755 8.05123 14.4023 8.43737 15.001 8.43636V7.78946C14.6328 7.78946 14.3345 7.50133 14.3345 7.14349C14.3345 6.78666 14.6328 6.49758 15.001 6.49758C15.7979 6.49758 16.334 7.3325 16.334 8.11288C16.334 8.51015 16.188 8.8923 15.921 9.19253C15.8115 9.31383 15.8115 9.49373 15.9199 9.61503Z" fill="#333333"/>
</svg>
