<svg width="24" height="24" viewBox="0 0 24 24" fill="none" xmlns="http://www.w3.org/2000/svg">
<path d="M15.3627 12.5249C15.7693 12.5249 16.1581 12.3333 16.4309 11.9978C16.5519 11.8489 16.5291 11.6295 16.3793 11.5074C16.2295 11.3853 16.0103 11.4081 15.8883 11.558C15.7475 11.7327 15.561 11.827 15.3627 11.827C15.1643 11.827 14.9778 11.7317 14.837 11.558C14.716 11.4091 14.4958 11.3853 14.346 11.5074C14.1972 11.6295 14.1734 11.8489 14.2954 11.9978C14.5662 12.3333 14.956 12.5249 15.3627 12.5249Z" fill="#333333"/>
<path d="M13.769 10.5316C13.9615 10.5316 14.1182 10.3747 14.1182 10.1821V9.78302C14.1182 9.59143 13.9624 9.43359 13.769 9.43359C13.5756 9.43359 13.4199 9.59043 13.4199 9.78302V10.1821C13.4209 10.3747 13.5766 10.5316 13.769 10.5316Z" fill="#333333"/>
<path d="M6.91114 7.6467C7.10356 7.6467 7.26027 7.48986 7.26027 7.29727V6.89816C7.26027 6.70657 7.10455 6.54874 6.91114 6.54874C6.71774 6.54874 6.56201 6.70558 6.56201 6.89816V7.29727C6.56201 7.48986 6.71774 7.6467 6.91114 7.6467Z" fill="#333333"/>
<path d="M7.23486 7.99612C7.23486 8.18871 7.39157 8.34555 7.58399 8.34555H7.98271C8.17413 8.34555 8.33184 8.1897 8.33184 7.99612C8.33184 7.80254 8.17513 7.6467 7.98271 7.6467H7.58399C7.39157 7.6467 7.23486 7.80254 7.23486 7.99612Z" fill="#333333"/>
<path d="M5.44238 7.99612C5.44238 8.18871 5.59909 8.34555 5.79151 8.34555H6.19023C6.38165 8.34555 6.53936 8.1897 6.53936 7.99612C6.53936 7.80254 6.38264 7.6467 6.19023 7.6467H5.79151C5.59909 7.6467 5.44238 7.80254 5.44238 7.99612Z" fill="#333333"/>
<path d="M6.89943 9.46539C7.09184 9.46539 7.24855 9.30849 7.24855 9.11591V8.71686C7.24855 8.52526 7.09283 8.36743 6.89943 8.36743C6.70602 8.36743 6.55029 8.52427 6.55029 8.71686V9.11591C6.55029 9.30849 6.70701 9.46539 6.89943 9.46539Z" fill="#333333"/>
<path d="M2.46875 3.85949C2.66117 3.85949 2.81788 3.70266 2.81788 3.51007V3.11102C2.81788 2.91943 2.66216 2.76154 2.46875 2.76154C2.27535 2.76154 2.11963 2.91843 2.11963 3.11102V3.51007C2.11963 3.70266 2.27535 3.85949 2.46875 3.85949Z" fill="#333333"/>
<path d="M2.79248 4.20892C2.79248 4.40151 2.94919 4.55835 3.14161 4.55835H3.54033C3.73175 4.55835 3.88945 4.4025 3.88945 4.20892C3.88945 4.01534 3.73274 3.8595 3.54033 3.8595H3.14161C2.94919 3.8595 2.79248 4.01634 2.79248 4.20892Z" fill="#333333"/>
<path d="M1 4.20892C1 4.40151 1.15671 4.55835 1.34913 4.55835H1.74785C1.93927 4.55835 2.09697 4.4025 2.09697 4.20892C2.09697 4.01534 1.94026 3.8595 1.74785 3.8595H1.34913C1.15671 3.8595 1 4.01634 1 4.20892Z" fill="#333333"/>
<path d="M2.45704 5.67917C2.64945 5.67917 2.80617 5.52233 2.80617 5.32974V4.93063C2.80617 4.73904 2.65044 4.58121 2.45704 4.58121C2.26363 4.58121 2.10791 4.73805 2.10791 4.93063V5.32974C2.10791 5.52133 2.26462 5.67917 2.45704 5.67917Z" fill="#333333"/>
<path d="M16.9566 10.5316C17.149 10.5316 17.3057 10.3747 17.3057 10.1821V9.78302C17.3057 9.59143 17.15 9.43359 16.9566 9.43359C16.7631 9.43359 16.6074 9.59043 16.6074 9.78302V10.1821C16.6074 10.3747 16.7631 10.5316 16.9566 10.5316Z" fill="#333333"/>
<path d="M22.6908 17.6076C22.7196 17.5103 22.7553 17.416 22.791 17.3197C22.8892 17.0517 23.0003 16.7509 23.0003 16.4004C23.0003 15.6231 22.6522 14.9233 22.1037 14.4528C22.6303 14.2284 23.0003 13.7072 23.0003 13.1007C23.0003 12.2916 22.3427 11.6325 21.5344 11.6325V7.39754C21.5344 3.96871 18.9308 1.16132 15.6061 1.00447C15.5 0.998511 15.1102 0.998511 15.0041 1.00447C11.6794 1.16132 9.07586 3.96871 9.07586 7.39754V11.6325C8.26751 11.6325 7.60991 12.2906 7.60991 13.1007C7.60991 13.7072 7.98086 14.2294 8.50653 14.4528C7.95805 14.9233 7.60991 15.6231 7.60991 16.4004C7.60991 16.8313 7.71802 17.2532 7.92234 17.6284C7.95309 17.7763 8.04632 18.1387 8.26453 18.5645L7.91341 20.2204L6.52881 17.4488L6.78768 16.1523C6.86901 15.7472 6.66667 15.3353 6.29771 15.1506C5.94362 14.9729 5.51812 15.0424 5.23743 15.3223L4.95674 15.6033L2.49301 14.6175C2.16075 14.4835 1.78484 14.5242 1.48729 14.7257C1.19073 14.9262 1.01318 15.2608 1.01318 15.6192C1.01318 16.0063 1.22147 16.3647 1.55672 16.5553L3.63363 17.7436L5.05791 22.733C5.10353 22.8908 5.24735 23 5.41002 23H22.6323C22.7424 23 22.8466 22.9503 22.916 22.864C22.9854 22.7786 23.0132 22.6674 22.9914 22.5592L22.1939 18.6886C22.3963 18.367 22.5569 18.0275 22.668 17.6751L22.6908 17.6076ZM5.68773 22.2684L4.29816 17.4011C4.27237 17.3078 4.21088 17.2303 4.12757 17.1817L1.92171 15.921C1.81459 15.8584 1.74715 15.7432 1.74715 15.6201C1.74715 15.503 1.80269 15.3978 1.89989 15.3323C1.9961 15.2678 2.11413 15.2539 2.22224 15.2985L4.90814 16.3746C5.04402 16.4282 5.19974 16.3955 5.30389 16.2932L5.75518 15.8406C5.81171 15.785 5.898 15.7701 5.96941 15.8068C6.04479 15.8436 6.08545 15.9269 6.06859 16.0083L5.78493 17.4299C5.76906 17.5083 5.77997 17.5917 5.81667 17.6651L8.11575 22.2684H5.68773ZM14.9386 22.2684H10.9078V20.8925H10.8979C10.884 20.7059 10.7322 20.5549 10.5398 20.5549C10.3474 20.5549 10.1956 20.7049 10.1818 20.8925H10.1758V22.2684H8.93601L8.4391 21.2737L9.19884 17.6959C9.20182 17.684 9.2038 17.6721 9.20479 17.6582C9.22066 17.5113 9.32183 17.3892 9.44085 17.3505L11.7469 16.8134L12.3053 18.7045C12.3519 18.8643 12.4977 18.9686 12.6564 18.9686C12.6891 18.9686 12.7219 18.9646 12.7546 18.9547L14.9396 18.3491V22.2684H14.9386ZM12.9053 18.1526L12.462 16.6476L13.3596 16.3726C13.7752 17.0139 14.4744 17.4537 15.2937 17.4537C16.1149 17.4537 16.8231 17.0169 17.2407 16.3737L18.1194 16.6496L17.561 18.1526L15.2927 17.4537L12.9053 18.1526ZM16.7715 15.8167C16.5077 16.3706 15.9473 16.7548 15.2947 16.7548C14.6579 16.7548 14.1114 16.3865 13.8407 15.8545V14.3098C14.2989 14.4726 14.7918 14.5669 15.3066 14.5669C15.8214 14.5669 16.3133 14.4726 16.7725 14.3098V15.8167H16.7715ZM20.4354 22.2684V20.8617H20.4225C20.3937 20.69 20.2519 20.5549 20.0714 20.5549C19.8909 20.5549 19.7481 20.69 19.7193 20.8617L19.7024 22.2684H15.6716V18.3591L17.6821 18.9537C17.8665 19.0093 18.0619 18.912 18.1294 18.7293L18.8366 16.8253L20.9779 17.3455C21.1208 17.3882 21.2219 17.5103 21.2428 17.6939L22.184 22.2684H20.4354ZM22.1037 17.0646C22.063 17.1738 22.0223 17.2859 21.9896 17.3961L21.9698 17.4577C21.9648 17.4736 21.9579 17.4865 21.9529 17.5014C21.8795 17.0973 21.5879 16.7628 21.1704 16.6387L17.5035 15.7472V13.9732C18.8157 13.2098 19.7024 11.7933 19.7024 10.1672V8.29889H20.0287C20.2202 8.29889 20.3779 8.14205 20.3779 7.94946C20.3779 7.76978 20.241 7.62882 20.0684 7.60797V7.59907H19.0141C18.5092 7.59907 18.0699 7.25655 17.9449 6.75522L17.1226 3.83168C17.078 3.67483 16.9352 3.56465 16.7705 3.56465C16.6069 3.56465 16.4631 3.67287 16.4184 3.83071L15.6627 6.4882C15.499 7.1424 14.9148 7.59907 14.2404 7.59907L12.3995 7.57719C12.1942 7.57719 12.0276 7.74397 12.0276 7.94946C12.0276 8.15495 12.1942 8.32173 12.3995 8.32173L14.2404 8.33367C15.2511 8.33367 16.1278 7.64769 16.3699 6.67682L16.7676 5.27906L17.2357 6.94487C17.4361 7.74798 18.1452 8.30886 18.9685 8.3307V10.1682C18.9685 12.1913 17.325 13.8353 15.3046 13.8353C13.2842 13.8353 11.6408 12.1913 11.6408 10.1682L11.6298 8.29992C11.6298 8.09443 11.4632 7.92765 11.2579 7.92765C11.0526 7.92765 10.886 8.09443 10.886 8.29992L10.9078 10.1682C10.9078 11.7932 11.7945 13.2108 13.1057 13.9732V15.7453L9.2524 16.6447C8.93601 16.74 8.68606 16.9702 8.56009 17.2621C8.41925 16.998 8.34289 16.7042 8.34289 16.4024C8.34289 15.3918 9.16512 14.5689 10.1758 14.5689C10.3781 14.5689 10.5418 14.4041 10.5418 14.2026C10.5418 14.0001 10.3772 13.8353 10.1758 13.8353H9.07685C8.67218 13.8353 8.34388 13.5067 8.34388 13.1026C8.34388 12.6976 8.67317 12.369 9.07685 12.369H9.44283C9.64517 12.369 9.80981 12.2052 9.80981 12.0027V7.40051C9.80981 4.3638 12.1069 1.87805 15.0398 1.73907C15.1221 1.73509 15.4891 1.73509 15.5724 1.73907C18.5053 1.87904 20.8024 4.36479 20.8024 7.40051V12.0027C20.8024 12.2052 20.966 12.369 21.1684 12.369H21.5353C21.939 12.369 22.2683 12.6976 22.2683 13.1026C22.2683 13.5067 21.939 13.8353 21.5353 13.8353H20.4364C20.234 13.8353 20.0694 14.0001 20.0694 14.2026C20.0694 14.4041 20.234 14.5689 20.4364 14.5689C21.4471 14.5689 22.2683 15.3918 22.2683 16.4024C22.2673 16.6198 22.187 16.8372 22.1037 17.0646Z" fill="#333333"/>
<path d="M19.1099 19.9156H17.1678C16.9625 19.9156 16.7959 20.0824 16.7959 20.2879C16.7959 20.4934 16.9625 20.6602 17.1678 20.6602H19.1099C19.3152 20.6602 19.4818 20.4934 19.4818 20.2879C19.4818 20.0824 19.3152 19.9156 19.1099 19.9156Z" fill="#333333"/>
<path d="M6.13379 4.6358C6.32661 4.6358 6.48293 4.47936 6.48293 4.28638C6.48293 4.09339 6.32661 3.93695 6.13379 3.93695C5.94098 3.93695 5.78467 4.09339 5.78467 4.28638C5.78467 4.47936 5.94098 4.6358 6.13379 4.6358Z" fill="#333333"/>
<path d="M1.85695 8.91742C2.04976 8.91742 2.20607 8.76092 2.20607 8.56793C2.20607 8.37494 2.04976 8.21851 1.85695 8.21851C1.66413 8.21851 1.50781 8.37494 1.50781 8.56793C1.50781 8.76092 1.66413 8.91742 1.85695 8.91742Z" fill="#333333"/>
<path d="M4.33644 11.3992C4.52926 11.3992 4.68556 11.2427 4.68556 11.0497C4.68556 10.8567 4.52926 10.7003 4.33644 10.7003C4.14362 10.7003 3.9873 10.8567 3.9873 11.0497C3.9873 11.2427 4.14362 11.3992 4.33644 11.3992Z" fill="#333333"/>
</svg>
