<svg width="24" height="24" viewBox="0 0 24 24" fill="none" xmlns="http://www.w3.org/2000/svg">
<path d="M3.91064 2.60178L4.84009 4.5616L5.61724 3.08305L6.60045 5.03558" stroke="#333333" stroke-width="0.75" stroke-miterlimit="10" stroke-linecap="round" stroke-linejoin="round"/>
<path d="M18.4469 5.09032L20.3709 4.20344L19.0744 3.28844L20.998 2.34147" stroke="#333333" stroke-width="0.75" stroke-miterlimit="10" stroke-linecap="round" stroke-linejoin="round"/>
<path d="M5.6551 13.5141L4.75364 15.486L3.95745 14.0194L3 15.9877" stroke="#333333" stroke-width="0.75" stroke-miterlimit="10" stroke-linecap="round" stroke-linejoin="round"/>
<path d="M21.0001 16.5317L19.4435 15.094L20.9586 14.6201L19.4233 13.1246" stroke="#333333" stroke-width="0.75" stroke-miterlimit="10" stroke-linecap="round" stroke-linejoin="round"/>
<path d="M9.50146 13.3079H11.6806L9.56641 15.0482" stroke="#333333" stroke-width="0.75" stroke-miterlimit="10" stroke-linecap="round" stroke-linejoin="round"/>
<path d="M15.7918 13.3079H13.6138L15.728 15.0482" stroke="#333333" stroke-width="0.75" stroke-miterlimit="10" stroke-linecap="round" stroke-linejoin="round"/>
<path d="M10.5913 17.9584L11.5667 17.3554L12.5297 17.9584L13.5264 17.2613L14.4715 17.9584" stroke="#333333" stroke-width="0.75" stroke-miterlimit="10" stroke-linecap="round" stroke-linejoin="round"/>
<path d="M9.58221 10.5882C11.1399 10.2493 13.2127 9.55464 15.0548 8.12909L17.8442 10.1709C17.8442 10.1709 17.8442 13.97 17.8442 15.2569C17.8442 18.4288 15.4568 21 12.5117 21C9.56766 21 7.24627 18.4276 7.17908 15.2569C7.14885 13.8313 7.17684 10.9103 7.17684 10.9103C7.17684 10.9103 7.47023 10.9054 7.96519 10.8523" stroke="#333333" stroke-width="0.75" stroke-miterlimit="10" stroke-linecap="round" stroke-linejoin="round"/>
<path d="M7.3998 10.9018C7.3998 10.9018 6.10193 11.0248 6.18928 9.61135C6.27662 8.19787 7.77046 5.00789 12.2497 4.56045C12.2497 4.56045 17.2363 3.92004 18.8287 8.53678C19.1602 9.49679 18.8813 10.7233 17.8444 10.1709" stroke="#333333" stroke-width="0.75" stroke-miterlimit="10"/>
</svg>
