<svg width="24" height="24" viewBox="0 0 24 24" fill="none" xmlns="http://www.w3.org/2000/svg">
<path d="M19.3586 7.47282L18.6734 6.78861C18.571 6.68525 18.4332 6.62913 18.2875 6.62913C18.1418 6.63012 18.005 6.68623 17.9026 6.7896L17.6329 7.05836L17.6014 7.02685C17.499 6.92447 17.3612 6.86836 17.2165 6.86836C17.0708 6.86934 16.9339 6.92545 16.8296 7.02784L16.5913 7.26608C16.3856 7.47282 16.3807 7.80458 16.5756 8.01821C16.2606 8.29583 15.9406 8.57541 15.6306 8.84516C15.5311 8.50749 15.2427 8.25153 14.8893 8.19836V6.87918C14.8873 6.17037 14.3095 5.59249 13.5997 5.59348H13.1833C13.0356 5.41824 12.8141 5.30798 12.567 5.30897L10.9339 5.30995C10.487 5.31094 10.1247 5.6742 10.1247 6.12213L10.1267 8.19935C9.77719 8.24759 9.49072 8.4937 9.38244 8.81956C9.05069 8.5193 8.71992 8.21904 8.42066 7.94634C8.58998 7.7337 8.5762 7.42064 8.37833 7.22473L8.1401 6.98649C8.03772 6.88411 7.8999 6.82701 7.75519 6.82701C7.60949 6.82701 7.47266 6.88411 7.3693 6.98649L7.33779 7.01898L7.06806 6.74924C6.9647 6.64685 6.82786 6.59074 6.68217 6.59074C6.53648 6.59074 6.39964 6.64784 6.29628 6.74924L5.61407 7.43541C5.51071 7.53877 5.45361 7.67463 5.45361 7.82132C5.45361 7.96702 5.51071 8.10386 5.61407 8.20624L6.50793 9.09915C6.61031 9.20055 6.74714 9.25765 6.89284 9.25765C6.91843 9.25765 6.94403 9.25469 6.96962 9.25075L10.0666 12.342L10.0705 16.5939L8.8036 22.2417L8.19227 22.2427C7.88415 22.2427 7.63312 22.4937 7.63312 22.8019V23.362C7.63312 23.6702 7.88415 23.9212 8.19326 23.9212L10.3117 23.9192C10.6199 23.9192 10.8719 23.6672 10.8709 23.3591V22.6857L11.0185 22.0291C11.0589 21.8479 10.9457 21.6698 10.7655 21.6294C10.5854 21.59 10.4052 21.7032 10.3649 21.8834L10.2851 22.2388L9.48777 22.2398L10.7045 16.8183L14.2455 16.8144L15.7103 22.2338L14.8991 22.2348L13.643 17.5872C13.6036 17.4415 13.4707 17.3401 13.3201 17.3401L11.6525 17.3421C11.496 17.3421 11.3601 17.4494 11.3257 17.6039L10.7163 20.323C10.676 20.5041 10.7892 20.6823 10.9693 20.7217C11.1495 20.7621 11.3286 20.6489 11.369 20.4687L11.9203 18.0115L13.0642 18.0105L14.3291 22.6897L14.3301 23.3571C14.3311 23.6653 14.5812 23.9163 14.8903 23.9163L17.0078 23.9143C17.3159 23.9143 17.5679 23.6623 17.5669 23.3542L17.5659 22.794C17.5659 22.4859 17.3149 22.2348 17.0068 22.2358H16.4033L14.8666 16.5486L14.8647 15.2186C14.8647 15.0335 14.715 14.8838 14.53 14.8838C14.3449 14.8838 14.1953 15.0335 14.1953 15.2186L14.1963 16.1469L10.738 16.1499L10.735 12.2022C10.735 12.1136 10.6996 12.0299 10.6366 11.9679L7.51991 8.855L7.95109 8.42381C8.27398 8.71914 8.8538 9.24386 9.43559 9.7676C10.8256 11.0139 11.1957 11.326 11.3631 11.4028C11.7057 11.6095 12.0985 11.7267 12.5119 11.7267C13.198 11.7257 13.8241 11.4008 14.2642 10.8889C14.5556 10.6507 14.9631 10.3061 15.541 9.80599C16.1356 9.29407 16.7242 8.77723 17.0491 8.49173L17.4862 8.92687L14.2908 12.1254C14.2287 12.1884 14.1933 12.274 14.1933 12.3626V13.6109C14.1943 13.795 14.3429 13.9457 14.529 13.9457C14.715 13.9457 14.8637 13.795 14.8627 13.6109V12.5014L18.064 9.29407C18.0699 9.29506 18.0759 9.29506 18.0818 9.29506C18.2265 9.29506 18.3643 9.23796 18.4667 9.13459L19.3586 8.24168C19.4619 8.1393 19.518 8.00147 19.518 7.85479C19.518 7.71106 19.4609 7.57421 19.3586 7.47282ZM10.2025 22.9092V23.2518L8.30253 23.2537V22.9112L10.2025 22.9092ZM16.8975 22.9033L16.8985 23.2459L14.9986 23.2478L14.9976 22.9053L16.8975 22.9033ZM6.89284 8.53702L6.17421 7.82033L6.68315 7.31038L7.10153 7.72878C7.23246 7.85872 7.44411 7.85774 7.57405 7.72779L7.7542 7.54763L7.81622 7.60966L6.89284 8.53702ZM10.0056 9.10899C10.0056 9.01744 10.0538 8.9377 10.1276 8.89339L10.1296 9.20744C10.1296 9.24682 10.1306 9.28423 10.1326 9.32361C10.0577 9.28127 10.0056 9.20055 10.0056 9.10899ZM10.7951 6.12115C10.7951 6.04338 10.8591 5.9784 10.9368 5.9784L12.569 5.97742C12.6468 5.97742 12.7108 6.04141 12.7108 6.12016V6.4096C12.6438 6.40566 12.5769 6.40369 12.507 6.40369C11.8012 6.40369 11.2115 6.61043 10.7951 6.96877V6.12115ZM14.2228 9.20448C14.2228 10.1909 13.4225 11.0572 12.5119 11.0582C11.5994 11.0592 10.799 10.1939 10.798 9.20744V8.49075C10.797 7.44525 11.6801 7.07411 12.509 7.07312C13.3359 7.07214 14.2218 7.44328 14.2228 8.48878V9.20448ZM14.2209 6.9668C13.9905 6.76892 13.707 6.6183 13.3802 6.52281V6.26291H13.6017C13.9423 6.26193 14.2199 6.53856 14.2209 6.87918V6.9668ZM14.8883 9.31179C14.8903 9.27537 14.8922 9.24091 14.8922 9.20448L14.8913 8.89832C14.9572 8.94262 15.0005 9.01941 15.0005 9.10505C15.0005 9.1907 14.9552 9.26749 14.8883 9.31179ZM18.0808 8.57541L17.1535 7.65199L17.2165 7.588L17.3976 7.76815C17.5285 7.90007 17.7402 7.90007 17.8701 7.76815L18.2885 7.34877L18.7984 7.85872L18.0808 8.57541Z" fill="#333333"/>
<path d="M13.7215 12.3164C13.5492 12.1451 13.3189 12.0506 13.0747 12.0506C12.8591 12.0506 12.6554 12.1234 12.491 12.2593C12.3266 12.1234 12.1228 12.0506 11.9072 12.0506C11.6631 12.0506 11.4337 12.1451 11.2614 12.3164C11.0882 12.4886 10.9927 12.718 10.9927 12.9612C10.9927 13.2063 11.0882 13.4347 11.2614 13.608L12.17 14.5117C12.2547 14.5964 12.3679 14.6426 12.488 14.6426C12.6081 14.6426 12.7203 14.5964 12.805 14.5117L13.7215 13.608C13.8957 13.4347 13.9902 13.2053 13.9902 12.9612C13.9912 12.718 13.8957 12.4896 13.7215 12.3164ZM13.2519 13.1325L12.49 13.8856L11.7339 13.1335C11.6877 13.0872 11.6631 13.0291 11.6631 12.9612C11.6631 12.8972 11.6877 12.8371 11.7349 12.7899C11.7812 12.7436 11.8422 12.719 11.9092 12.719C11.9761 12.719 12.0371 12.7436 12.0844 12.7899L12.2577 12.9632C12.3886 13.0931 12.5993 13.0931 12.7292 12.9632L12.9034 12.7899C12.9507 12.7436 13.0107 12.719 13.0777 12.719C13.1446 12.719 13.2047 12.7436 13.2519 12.7899C13.3002 12.8371 13.3238 12.8962 13.3238 12.9612C13.3218 13.0281 13.2982 13.0872 13.2519 13.1325Z" fill="#333333"/>
<path d="M19.9679 11.7188C19.9472 11.6686 19.9167 11.6213 19.8773 11.5829C19.8389 11.5436 19.7926 11.513 19.7405 11.4924C19.4392 11.3723 19.1232 11.3112 18.8003 11.3112C18.1201 11.3112 17.4802 11.577 16.9988 12.0584C16.3245 12.7308 16.0873 13.7182 16.3688 14.6171L16.1719 14.8149C16.041 14.9449 16.041 15.1565 16.1719 15.2865C16.2369 15.3515 16.3216 15.3849 16.4082 15.3849C16.4928 15.3849 16.5795 15.3525 16.6444 15.2875L16.8423 15.0896C17.0874 15.1654 17.3424 15.2058 17.6013 15.2058C18.2796 15.2058 18.9204 14.94 19.4008 14.4586C20.1214 13.7399 20.3439 12.6649 19.9679 11.7188ZM18.9293 13.986C18.5749 14.3414 18.1024 14.5373 17.6023 14.5373C17.5353 14.5373 17.4704 14.5334 17.4064 14.5265L18.7826 13.1492C18.9135 13.0193 18.9135 12.8076 18.7826 12.6777C18.6517 12.5477 18.44 12.5467 18.3101 12.6777L16.9339 14.053C16.8748 13.4987 17.0668 12.9376 17.4723 12.531C17.8277 12.1766 18.2993 11.9807 18.8013 11.9807C19.0002 11.9807 19.1971 12.0122 19.3861 12.0752C19.6066 12.7446 19.4323 13.4839 18.9293 13.986Z" fill="#333333"/>
<path d="M10.4081 3.07325C9.3626 2.5948 8.86842 1.76096 8.69418 1.36127C8.61937 1.18997 8.45103 1.07971 8.26399 1.07971C8.07695 1.07971 7.90763 1.18997 7.83281 1.36127C7.42526 2.29848 7.05611 2.66667 6.11992 3.07325C5.94863 3.14807 5.83838 3.3174 5.83838 3.50444C5.83838 3.69149 5.94962 3.86082 6.12091 3.93564C6.16619 3.95631 7.44003 4.51844 7.8338 5.6486C7.89483 5.82384 8.07794 5.93016 8.26498 5.93016C8.45202 5.93016 8.61937 5.81891 8.69418 5.6486C9.10272 4.71139 9.47089 4.34321 10.4071 3.93564C10.5784 3.8618 10.6896 3.69248 10.6896 3.50444C10.6896 3.31641 10.5774 3.15201 10.4081 3.07325ZM8.26399 4.99197C7.89877 4.2802 7.48728 3.86968 6.77653 3.50444C7.48827 3.13921 7.89877 2.72869 8.26399 2.01692C8.6302 2.72869 9.03971 3.13921 9.75243 3.50444C9.03971 3.86968 8.62921 4.2802 8.26399 4.99197Z" fill="#333333"/>
<path d="M8.00312 12.8657C7.60246 12.6767 7.4233 12.4975 7.23527 12.0968C7.15849 11.9334 6.99212 11.8281 6.81099 11.8281C6.62985 11.8281 6.46349 11.9334 6.3867 12.0968C6.19868 12.4975 6.01853 12.6767 5.61885 12.8657C5.45445 12.9415 5.34912 13.1079 5.34912 13.289C5.34912 13.4702 5.45445 13.6365 5.61885 13.7133C6.01951 13.9014 6.19868 14.0815 6.3867 14.4812C6.46349 14.6446 6.62985 14.75 6.81099 14.75C6.99212 14.75 7.15849 14.6446 7.23527 14.4812C7.4233 14.0815 7.60246 13.9014 8.00312 13.7133C8.16752 13.6365 8.27285 13.4702 8.27285 13.289C8.27285 13.1079 8.16752 12.9415 8.00312 12.8657ZM6.81099 13.863C6.65643 13.6227 6.4753 13.4426 6.23608 13.288C6.47628 13.1345 6.65643 12.9523 6.81099 12.7131C6.96554 12.9523 7.14569 13.1345 7.38589 13.288C7.14667 13.4436 6.96652 13.6227 6.81099 13.863Z" fill="#333333"/>
<path d="M12.5061 10.6182C12.8349 10.6182 13.1489 10.4636 13.3695 10.1919C13.4669 10.0718 13.4482 9.89462 13.3271 9.79618C13.206 9.69773 13.0288 9.71644 12.9304 9.83654C12.8162 9.9783 12.6656 10.0551 12.5051 10.0551C12.3447 10.0551 12.1941 9.9783 12.0799 9.83654C11.9814 9.71644 11.8042 9.69773 11.6831 9.79618C11.5621 9.89561 11.5434 10.0718 11.6418 10.1919C11.8623 10.4627 12.1773 10.6182 12.5061 10.6182Z" fill="#333333"/>
<path d="M11.5794 9.00857C11.7349 9.00857 11.8619 8.88158 11.8619 8.72702V8.40411C11.8619 8.24955 11.7359 8.12256 11.5794 8.12256C11.4229 8.12256 11.2979 8.24955 11.2979 8.40411V8.72702C11.2979 8.88158 11.4239 9.00857 11.5794 9.00857Z" fill="#333333"/>
<path d="M13.4305 9.00857C13.586 9.00857 13.713 8.88158 13.713 8.72702V8.40411C13.713 8.24955 13.586 8.12256 13.4305 8.12256C13.2749 8.12256 13.1499 8.24955 13.1499 8.40411V8.72702C13.1499 8.88158 13.2749 9.00857 13.4305 9.00857Z" fill="#333333"/>
<path d="M10.2083 2.22368C10.1482 2.02975 9.93954 1.92244 9.74758 1.98151C9.43257 2.07897 9.12543 2.19317 8.82715 2.32213C8.97678 2.46389 9.09885 2.71395 9.22288 2.96105C9.46604 2.86063 9.71214 2.76514 9.96514 2.68638C10.1601 2.62633 10.2693 2.41861 10.2083 2.22368Z" fill="#333333"/>
<path d="M6.36712 3.88152C6.32085 3.92286 6.26868 3.95732 6.22241 3.99965C6.0718 4.13748 6.06097 4.37079 6.19879 4.52142C6.27065 4.59919 6.36811 4.64054 6.46655 4.64152C6.55613 4.6425 6.64768 4.61199 6.71954 4.54603C6.817 4.45743 6.92332 4.38064 7.02373 4.29696C6.73234 4.23002 6.50002 4.10597 6.36712 3.88152Z" fill="#333333"/>
<path d="M4.5427 14.0451C4.4669 13.8561 4.25131 13.7655 4.06328 13.8394C3.87427 13.9162 3.78174 14.1317 3.85754 14.3208C3.98453 14.6378 4.12924 14.9489 4.2897 15.2471C4.35566 15.3702 4.48068 15.4401 4.61062 15.4421C4.67166 15.4421 4.73269 15.4283 4.78979 15.3978C4.96993 15.3013 5.03688 15.0778 4.94139 14.8977C4.79274 14.623 4.65984 14.3385 4.5427 14.0451Z" fill="#333333"/>
<path d="M9.00726 18.6839C8.71981 18.5559 8.43925 18.4122 8.16853 18.2527C7.9933 18.1503 7.76689 18.2094 7.66352 18.3846C7.56114 18.5608 7.62021 18.7863 7.79544 18.8897C8.08978 19.0629 8.39298 19.2185 8.70603 19.3592C8.75328 19.3799 8.8025 19.3898 8.85073 19.3907C8.99348 19.3927 9.13129 19.311 9.19331 19.1712C9.27699 18.9861 9.19331 18.7676 9.00726 18.6839Z" fill="#333333"/>
<path d="M6.00485 16.4492C5.87097 16.2966 5.63865 16.2779 5.4841 16.4108C5.33053 16.5447 5.31281 16.777 5.4457 16.9316C5.66917 17.1895 5.90543 17.4356 6.15547 17.6679C6.22536 17.7329 6.31396 17.7664 6.40158 17.7674C6.50199 17.7693 6.6024 17.73 6.67623 17.6502C6.81503 17.5016 6.80716 17.2673 6.65752 17.1294C6.42914 16.9148 6.21158 16.6884 6.00485 16.4492Z" fill="#333333"/>
<path d="M4.04178 12.2327C3.99256 11.9246 3.96008 11.6125 3.94334 11.2955C3.9335 11.0917 3.75138 10.9165 3.55647 10.946C3.35269 10.9559 3.19518 11.1291 3.20503 11.3329C3.22275 11.6765 3.25819 12.0161 3.31134 12.3509C3.33989 12.531 3.49445 12.659 3.67066 12.661C3.69133 12.661 3.71299 12.659 3.73465 12.656C3.93645 12.6245 4.07329 12.4336 4.04178 12.2327Z" fill="#333333"/>
<path d="M20.8427 9.01845C20.8811 9.18974 21.0307 9.30591 21.1981 9.30788C21.2257 9.30886 21.2542 9.30591 21.2828 9.3C21.4826 9.2557 21.6076 9.05881 21.5643 8.85995C21.4905 8.52326 21.3979 8.19445 21.2887 7.87351C21.2237 7.68154 21.014 7.57818 20.8211 7.64315C20.6271 7.70813 20.5238 7.9188 20.5897 8.11274C20.6901 8.40512 20.7748 8.70834 20.8427 9.01845Z" fill="#333333"/>
<path d="M4.47787 6.90579C4.53299 6.93631 4.59107 6.95009 4.65014 6.95107C4.78304 6.95304 4.912 6.88413 4.97992 6.76009C5.13054 6.48345 5.2969 6.21667 5.47705 5.95972C5.5942 5.79335 5.55384 5.56298 5.38649 5.44682C5.21913 5.32966 4.98976 5.37101 4.87262 5.5364C4.67672 5.81402 4.49559 6.10542 4.33119 6.4047C4.23373 6.58387 4.29969 6.80734 4.47787 6.90579Z" fill="#333333"/>
<path d="M3.62836 9.7184C3.64805 9.72233 3.66675 9.72332 3.68546 9.7243C3.86462 9.72627 4.02311 9.59928 4.05363 9.41715C4.10679 9.10508 4.17668 8.79792 4.26331 8.49865C4.31942 8.30372 4.20622 8.09797 4.01032 8.04186C3.81737 7.97984 3.60966 8.09797 3.55354 8.29486C3.46002 8.61974 3.38422 8.95347 3.32614 9.29311C3.29169 9.49394 3.42754 9.68492 3.62836 9.7184Z" fill="#333333"/>
<path d="M21.7808 10.8948C21.7838 10.691 21.6214 10.5749 21.4176 10.5719C21.2138 10.569 21.0455 10.7816 21.0425 10.9854C21.0386 11.2827 21.0199 11.5761 20.9854 11.8655C20.9618 12.0673 21.1075 12.2514 21.3093 12.2741C21.3231 12.276 21.3339 12.277 21.3477 12.277C21.5337 12.28 21.6962 12.1402 21.7188 11.9502C21.7552 11.6371 21.7759 11.3182 21.7808 10.9165L21.4117 10.8909L21.7808 10.8948Z" fill="#333333"/>
<path d="M18.4202 3.70924C18.1584 3.49168 17.8837 3.28789 17.5973 3.09986C17.426 2.98763 17.1986 3.03784 17.0864 3.2052C16.9741 3.37551 17.0214 3.6039 17.1907 3.7181C17.4545 3.89038 17.7065 4.07842 17.9487 4.27728C18.0166 4.33339 18.0983 4.36194 18.1791 4.36292C18.2864 4.36391 18.3947 4.31862 18.4695 4.22904C18.5984 4.07152 18.5778 3.83919 18.4202 3.70924Z" fill="#333333"/>
<path d="M11.7311 19.3878C11.5382 19.3701 11.3511 19.3356 11.1611 19.3061C11.1611 19.6428 11.1611 19.8584 11.1611 20.0503C11.3295 20.074 11.4949 20.1084 11.6671 20.1232C11.676 20.1242 11.6858 20.1242 11.6947 20.1242C11.8867 20.1271 12.0501 19.9804 12.0668 19.7875C12.0855 19.5837 11.9349 19.4045 11.7311 19.3878Z" fill="#333333"/>
<path d="M19.2069 16.1647C19.011 16.4118 18.8033 16.6471 18.5818 16.8715C18.439 17.0162 18.44 17.2505 18.5857 17.3933C18.6566 17.4632 18.7482 17.4976 18.8397 17.4996C18.9381 17.5006 19.0336 17.4632 19.1075 17.3893C19.3467 17.1472 19.5741 16.8902 19.7848 16.6224C19.9117 16.463 19.8842 16.2306 19.7237 16.1036C19.5642 15.9786 19.3319 16.0052 19.2069 16.1647Z" fill="#333333"/>
<path d="M21.0348 13.4722C20.8429 13.4032 20.6322 13.5056 20.5633 13.6976C20.4599 13.9949 20.3379 14.2863 20.202 14.5679C20.1144 14.7529 20.1922 14.9725 20.3753 15.0601C20.4255 15.0847 20.4777 15.0965 20.5308 15.0965C20.6696 15.0985 20.8035 15.0217 20.8685 14.8878C21.0152 14.5807 21.1461 14.2656 21.2593 13.9417C21.3282 13.7498 21.2268 13.5381 21.0348 13.4722Z" fill="#333333"/>
<path d="M20.4217 6.02272C20.2426 5.72935 20.0487 5.44976 19.8409 5.18101C19.7159 5.02054 19.4836 4.98904 19.3221 5.11505C19.1617 5.24007 19.1322 5.47044 19.2572 5.63189C19.4491 5.87997 19.6273 6.13987 19.7917 6.40863C19.8606 6.52086 19.9797 6.58387 20.1028 6.58583C20.1688 6.58583 20.2377 6.56811 20.2987 6.5307C20.4729 6.42438 20.5271 6.19599 20.4217 6.02272Z" fill="#333333"/>
<path d="M12.7776 1.57492L12.5492 1.57099C12.2825 1.56902 12.0167 1.57886 11.7548 1.59855C11.551 1.6143 11.3994 1.79151 11.4152 1.99529C11.4309 2.18628 11.5894 2.33296 11.7784 2.33591C11.7903 2.33591 11.8011 2.33493 11.8129 2.33395C12.0541 2.31524 12.2992 2.30737 12.6073 2.31032L12.755 2.31327C12.944 2.27586 13.1281 2.16068 13.135 1.95591C13.1419 1.75213 12.9814 1.58182 12.7776 1.57492Z" fill="#333333"/>
<path d="M17.1227 18.0578C16.8589 18.2281 16.5852 18.3836 16.3027 18.5254C16.1196 18.6179 16.0467 18.8394 16.1393 19.0216C16.2023 19.1496 16.3302 19.2234 16.4641 19.2254C16.5222 19.2254 16.5793 19.2126 16.6344 19.186C16.9416 19.0314 17.2369 18.8631 17.5224 18.679C17.6937 18.5687 17.7429 18.3393 17.6326 18.168C17.5224 17.9967 17.294 17.9485 17.1227 18.0578Z" fill="#333333"/>
<path d="M13.9353 19.2884C13.828 19.3071 13.7226 19.3346 13.6134 19.3494C13.4116 19.376 13.2688 19.562 13.2964 19.7639C13.321 19.9489 13.4775 20.0818 13.6567 20.0848C13.6754 20.0848 13.6921 20.0838 13.7118 20.0809C13.7738 20.072 13.8329 20.0562 13.8949 20.0464C13.9993 19.7156 14.1479 19.4429 13.9353 19.2884Z" fill="#333333"/>
<path d="M15.7773 2.16954C15.4613 2.05042 15.1344 1.94607 14.8017 1.86141C14.6058 1.80726 14.403 1.92933 14.3518 2.12819C14.3016 2.32509 14.4207 2.52592 14.6176 2.57711C14.9257 2.65587 15.225 2.75136 15.5174 2.86063C15.5587 2.87737 15.601 2.88426 15.6424 2.88426C15.794 2.88623 15.9367 2.79468 15.9928 2.64504C16.0647 2.45504 15.9692 2.24239 15.7773 2.16954Z" fill="#333333"/>
</svg>
