<svg width="24" height="24" viewBox="0 0 24 24" fill="none" xmlns="http://www.w3.org/2000/svg">
<g clip-path="url(#clip0)">
<path d="M10.7048 4.91981C10.5674 4.78256 10.3449 4.78256 10.2076 4.91981C10.0703 5.05715 10.0703 5.27971 10.2076 5.417L10.6053 5.81473C10.7427 5.95202 10.9652 5.95197 11.1025 5.81473C11.2398 5.67738 11.2398 5.45483 11.1025 5.31753L10.7048 4.91981ZM6.56507 9.05949C6.42773 8.92224 6.20517 8.92224 6.06788 9.05949C5.93058 9.19683 5.93058 9.41939 6.06788 9.55669L6.4656 9.95441C6.60299 10.0917 6.8255 10.0917 6.9628 9.95441C7.10009 9.81707 7.10009 9.59451 6.9628 9.45722L6.56507 9.05949ZM22.8189 21.9963C22.7814 21.8088 22.6799 21.4633 22.5355 21.0175C21.9421 19.1841 20.6221 15.648 20.0289 14.3688C20.1259 13.4156 19.8767 12.5496 19.3229 11.9074C19.2609 11.6017 19.1037 11.3397 18.8606 11.1412C18.138 10.5511 17.2116 9.99294 16.2432 9.54426C17.4679 7.99686 19.2686 5.39159 19.8265 4.452C20.4317 3.43249 19.8225 2.118 18.6553 1.91996C18.4637 1.88747 18.2823 2.01619 18.2498 2.20767C18.2173 2.39906 18.3461 2.5806 18.5376 2.61308C19.2191 2.72896 19.5759 3.49694 19.2219 4.09304C18.655 5.04801 16.7798 7.75602 15.5749 9.25477C15.0797 9.05523 14.5833 8.88854 14.1062 8.76419C14.2154 8.39651 14.287 8.02404 14.3201 7.65322C15.2694 6.42554 16.7201 4.39402 17.4264 3.24092C17.5278 3.07536 17.4758 2.85894 17.3102 2.7575C17.1447 2.65607 16.9282 2.708 16.8267 2.8737C16.255 3.80725 15.1836 5.33061 14.2996 6.51638C14.2505 6.13553 14.1581 5.7642 14.022 5.40992C14.8109 4.61273 14.8085 3.32252 14.0146 2.52852C13.3569 1.87083 12.3721 1.76119 11.6087 2.16933C10.8435 1.31912 9.92946 0.580764 9.06393 0.119523C8.44655 -0.209346 7.68456 0.173335 7.57685 0.868431C7.57221 0.898196 7.56803 0.926367 7.56433 0.953226C6.17151 0.773464 4.87296 1.53086 3.61341 1.97607C3.38358 2.0573 3.20518 2.23575 3.12414 2.46538C2.67836 3.72616 1.92158 5.02368 2.1013 6.41626C2.07449 6.41996 2.04622 6.42414 2.01646 6.42878C1.32389 6.53612 0.937508 7.29632 1.26759 7.91586C1.72898 8.78167 2.46762 9.69604 3.31815 10.4613C2.9072 11.2337 3.0265 12.2164 3.67659 12.8665C4.46909 13.6589 5.75687 13.6638 6.55527 12.8765C7.26617 13.1515 8.06424 13.2564 8.91013 13.1643C8.39686 14.7427 7.10525 17.933 6.76958 18.4687C6.09783 19.541 6.80422 20.941 8.05159 21.0524C8.24438 21.0698 8.41571 20.9274 8.43305 20.7336C8.45035 20.5402 8.30761 20.3694 8.11421 20.3521C7.39076 20.2872 6.97067 19.4721 7.3654 18.842C7.78764 18.1681 9.27238 14.4326 9.68979 13.0231C9.76455 13.0041 9.83899 12.9836 9.9131 12.9616C10.132 13.8 10.4823 14.6984 10.9097 15.5439C10.3077 17.1618 9.54223 18.9702 9.14235 19.7151C9.01574 19.951 9.18941 20.233 9.45181 20.233C9.57715 20.233 9.69846 20.1658 9.76188 20.0477C10.1275 19.3666 10.7836 17.8391 11.354 16.3561C11.6473 16.8522 11.9633 17.3136 12.2892 17.7127C12.4052 17.8548 12.5431 17.9671 12.6984 18.0487C12.0976 19.1704 11.3623 20.6265 10.8914 21.5881C10.4843 22.4191 10.8272 23.4213 11.6585 23.8285C12.4915 24.2368 13.4925 23.8909 13.8988 23.0614C14.484 21.8669 15.4552 19.9557 16.1185 18.7749C16.7346 18.622 17.3331 18.3362 17.8772 17.9364C18.6386 19.9278 19.4549 22.2701 19.5349 22.6532C19.7171 23.5645 20.602 24.1476 21.5053 23.9667C22.4128 23.7851 23.0005 22.9038 22.8189 21.9963ZM13.5172 3.02572C13.9761 3.48447 14.0318 4.19584 13.6849 4.71609C13.5015 4.40888 13.2796 4.12121 13.0182 3.85979C13.0182 3.85975 13.0182 3.85975 13.0182 3.85975C12.6344 3.47594 12.1909 3.17112 11.704 2.95091C12.2298 2.50401 13.0192 2.52759 13.5172 3.02572ZM1.88802 7.58507C1.78602 7.39368 1.90696 7.15711 2.12403 7.12345C2.35146 7.08825 2.43303 7.09073 2.44967 7.09167C2.7063 7.14787 2.9327 6.91135 2.86403 6.65668C2.51609 5.36689 3.29879 4.08048 3.78694 2.69952C3.79697 2.67102 3.81914 2.64894 3.84764 2.63887C5.22461 2.15217 6.51435 1.36783 7.8047 1.71596C8.05895 1.78458 8.29594 1.5587 8.23969 1.30145C8.23861 1.28486 8.23627 1.20325 8.27147 0.976007C8.30508 0.759214 8.54123 0.637763 8.73309 0.739949C9.51743 1.15793 10.3492 1.82818 11.0539 2.60418C11.0276 2.63329 11.0023 2.66329 10.9777 2.6939C7.63502 1.81501 3.9442 4.57505 3.69403 8.18496C3.65433 8.75786 3.70561 9.31116 3.84192 9.82963C3.81131 9.8542 3.78136 9.87955 3.75225 9.90585C2.97625 9.20115 2.30595 8.36941 1.88802 7.58507ZM4.17369 12.3692C3.67763 11.8732 3.65297 11.0819 4.09893 10.556C4.47631 11.3904 5.09566 12.0772 5.86252 12.5379C5.34236 12.8837 4.63198 12.8276 4.17369 12.3692ZM5.50501 11.3729C3.83925 9.7072 4.05773 6.77832 5.99208 4.84406C7.86995 2.96609 10.8095 2.64538 12.521 4.35694C14.1867 6.02271 13.9683 8.95163 12.0339 10.8858C10.141 12.779 7.20757 13.0755 5.50501 11.3729ZM10.5768 12.7199C11.9932 12.1068 13.2213 10.9204 13.8653 9.42806C15.4063 9.81965 17.237 10.723 18.4159 11.6857C19.3017 12.4092 17.4505 14.6724 16.6355 15.4874C15.8231 16.2999 13.5573 18.1537 12.8338 17.2678C11.8716 16.0897 10.9687 14.2605 10.5768 12.7199ZM13.2674 22.752C13.0314 23.2336 12.4503 23.4335 11.9677 23.197C11.4857 22.9609 11.2865 22.3796 11.5228 21.8973C11.5579 21.8256 11.6819 21.5728 11.8629 21.2098C12.3533 21.369 13.1097 21.6834 13.6009 22.0781C13.4715 22.3373 13.3581 22.567 13.2674 22.752ZM19.8353 21.2707C19.4419 20.118 18.8326 18.449 18.3597 17.233C18.2708 17.0047 17.9821 16.9357 17.7996 17.0967C17.2057 17.62 16.5199 17.9748 15.8163 18.1228C15.7178 18.1435 15.6329 18.2055 15.5831 18.2931C15.0866 19.1662 14.4399 20.4143 13.9222 21.4386C13.3755 21.0361 12.6691 20.7412 12.1812 20.5751C12.5346 19.8749 12.983 19.001 13.4133 18.2038C14.914 18.1598 16.9045 16.2128 17.1327 15.9847C17.3228 15.7945 18.7061 14.3811 19.1878 13.0467C19.3342 13.4444 19.3813 13.899 19.3196 14.3837C19.3111 14.4507 19.322 14.5187 19.3511 14.5796C19.8148 15.55 21.042 18.776 21.7054 20.7368C21.056 20.758 20.3325 20.9814 19.8353 21.2707ZM21.3674 23.2772C20.8445 23.3817 20.3306 23.0462 20.2238 22.5122C20.2019 22.4074 20.1452 22.2138 20.0632 21.9569C20.4608 21.6819 21.3093 21.4021 21.9365 21.4423C22.0323 21.7477 22.1 21.9875 22.1294 22.1342C22.2347 22.6606 21.8939 23.1719 21.3674 23.2772ZM9.2938 6.72774C9.10011 6.74105 8.95387 6.90886 8.96718 7.10259C8.98054 7.29684 8.90952 7.48691 8.77223 7.62416C8.63498 7.76141 8.44434 7.83228 8.25061 7.81911C8.05609 7.80589 7.88912 7.952 7.87576 8.14573C7.86245 8.33946 8.0087 8.50727 8.20238 8.52058C8.60986 8.54824 8.99526 8.39552 9.26947 8.12135C9.55048 7.84034 9.69598 7.45143 9.6687 7.05431C9.65529 6.86063 9.48757 6.71443 9.2938 6.72774Z" fill="#333333"/>
</g>
<defs>
<clipPath id="clip0">
<rect width="24" height="24" fill="white"/>
</clipPath>
</defs>
</svg>
