<svg width="24" height="24" viewBox="0 0 24 24" fill="none" xmlns="http://www.w3.org/2000/svg">
<g clip-path="url(#clip0)">
<path d="M23.1749 7.86034H22.9458L20.798 2.0776C20.6099 1.5713 20.1207 1.23113 19.5806 1.23113H4.41933C3.87928 1.23113 3.39005 1.5713 3.20198 2.0776L1.05417 7.86034H0.825094C0.370125 7.86034 0 8.23046 0 8.68543V9.34834C0 9.80331 0.370125 10.1734 0.825094 10.1734H0.947062V17.8792C0.947062 18.0734 1.10442 18.2308 1.29862 18.2308C1.49283 18.2308 1.65019 18.0734 1.65019 17.8792V10.1734H7.17019C7.47909 10.1734 7.76953 10.0531 7.98802 9.83466L12 5.82259L16.0121 9.83466C16.2305 10.0531 16.521 10.1734 16.8299 10.1734H22.3499V11.1054C22.3499 11.2996 22.5072 11.457 22.7014 11.457C22.8956 11.457 23.053 11.2996 23.053 11.1054V10.1734H23.175C23.6299 10.1734 24 9.80326 24 9.34829V8.68538C24 8.23046 23.6299 7.86034 23.1749 7.86034ZM3.86109 2.32238C3.94734 2.09021 4.17169 1.93426 4.41933 1.93426H19.5806C19.8283 1.93426 20.0526 2.09026 20.1389 2.32238L22.1958 7.86034H17.3089L12.8178 3.36924C12.5993 3.1508 12.309 3.03048 12 3.03048C11.691 3.03048 11.4007 3.15076 11.1822 3.36924L6.69108 7.86034H1.80417L3.86109 2.32238ZM23.2969 9.34834C23.2969 9.4156 23.2422 9.47031 23.1749 9.47031H16.8299C16.7087 9.47031 16.5948 9.42315 16.5092 9.33751L12.2486 5.07685C12.1826 5.0109 12.0932 4.97387 12 4.97387C11.9067 4.97387 11.8173 5.0109 11.7513 5.07685L7.49072 9.33751C7.40508 9.42315 7.29117 9.47031 7.17005 9.47031H0.825094C0.757828 9.47031 0.703125 9.4156 0.703125 9.34834V8.68543C0.703125 8.61816 0.757828 8.56346 0.825094 8.56346H6.83672C6.92995 8.56346 7.01934 8.52643 7.08534 8.46048L11.6795 3.8664C11.7651 3.78076 11.8789 3.7336 12 3.7336C12.1212 3.7336 12.235 3.78076 12.3206 3.8664L16.9147 8.46048C16.9807 8.52643 17.0701 8.56346 17.1634 8.56346H23.175C23.2423 8.56346 23.297 8.61816 23.297 8.68543V9.34834H23.2969Z" fill="#333333"/>
<path d="M21.139 19.9278C21.3332 19.9278 21.4905 19.7704 21.4905 19.5762V13.3259C21.4905 13.1317 21.3332 12.9743 21.139 12.9743H16.4038C16.2096 12.9743 16.0522 13.1317 16.0522 13.3259V19.5762C16.0522 19.7704 16.2096 19.9278 16.4038 19.9278H21.139ZM20.7874 17.7094H19.1229V16.045H20.7874V17.7094ZM18.4198 17.7094H16.7554V16.045H18.4198V17.7094ZM20.7874 19.2247H16.7554V18.4126H20.7874V19.2247ZM20.7874 15.3418H19.1229V13.6774H20.7874V15.3418ZM18.4198 13.6774V15.3419H16.7554V13.6774H18.4198Z" fill="#333333"/>
<path d="M7.5965 19.9278C7.7907 19.9278 7.94806 19.7704 7.94806 19.5762V13.3259C7.94806 13.1317 7.7907 12.9743 7.5965 12.9743H2.86133C2.66713 12.9743 2.50977 13.1317 2.50977 13.3259V19.5762C2.50977 19.7704 2.66713 19.9278 2.86133 19.9278H7.5965ZM7.24494 17.7094H5.5805V16.045H7.24494V17.7094ZM4.87738 17.7094H3.21289V16.045H4.87738V17.7094ZM7.24494 19.2247H3.21289V18.4126H7.24494V19.2247ZM7.24494 15.3418H5.5805V13.6774H7.24494V15.3418ZM4.87738 13.6774V15.3419H3.21289V13.6774H4.87738Z" fill="#333333"/>
<path d="M13.1366 14.4895H10.8638C10.6696 14.4895 10.5122 14.6469 10.5122 14.8411V16.3563C10.5122 16.5505 10.6696 16.7079 10.8638 16.7079H13.1366C13.3308 16.7079 13.4882 16.5505 13.4882 16.3563V14.8411C13.4882 14.6469 13.3308 14.4895 13.1366 14.4895ZM12.7851 16.0048H11.2153V15.1926H12.7851V16.0048Z" fill="#333333"/>
<path d="M13.8669 10.0586C13.8669 9.02924 13.0295 8.19177 12.0001 8.19177C10.9707 8.19177 10.1333 9.02924 10.1333 10.0586C10.1333 11.0879 10.9707 11.9254 12.0001 11.9254C13.0295 11.9254 13.8669 11.0879 13.8669 10.0586ZM10.8364 10.0586C10.8364 9.41694 11.3585 8.8949 12.0001 8.8949C12.6417 8.8949 13.1638 9.41694 13.1638 10.0586C13.1638 10.7002 12.6417 11.2223 12.0001 11.2223C11.3585 11.2223 10.8364 10.7002 10.8364 10.0586Z" fill="#333333"/>
<path d="M23.6484 20.4558H23.053V12.75C23.053 12.5558 22.8956 12.3984 22.7014 12.3984C22.5072 12.3984 22.3499 12.5558 22.3499 12.75V20.4558H15.0032V13.3259C15.0032 13.1317 14.8459 12.9743 14.6517 12.9743H9.34833C9.15413 12.9743 8.99677 13.1317 8.99677 13.3259V20.4558H1.65014V19.5237C1.65014 19.3296 1.49278 19.1722 1.29858 19.1722C1.10438 19.1722 0.947016 19.3296 0.947016 19.5237V20.4558H0.351562C0.157359 20.4558 0 20.6132 0 20.8073V22.4173C0 22.6115 0.157359 22.7689 0.351562 22.7689H23.6484C23.8426 22.7689 24 22.6115 24 22.4173V20.8073C24 20.6132 23.8426 20.4558 23.6484 20.4558ZM9.69989 17.8917H10.2007C10.3949 17.8917 10.5523 17.7343 10.5523 17.5401C10.5523 17.3459 10.3949 17.1885 10.2007 17.1885H9.69989V13.6774H14.3002V20.4558H9.69989V17.8917ZM23.2969 22.0657H0.703125V21.1589H23.2969V22.0657Z" fill="#333333"/>
</g>
<defs>
<clipPath id="clip0">
<rect width="24" height="24" fill="white"/>
</clipPath>
</defs>
</svg>
