<svg width="24" height="24" viewBox="0 0 24 24" fill="none" xmlns="http://www.w3.org/2000/svg">
<path d="M11.8323 5.2834C12.7498 5.2834 13.4937 4.5484 13.4937 3.6417C13.4937 2.735 12.7498 2 11.8323 2C10.9147 2 10.1709 2.735 10.1709 3.6417C10.1709 4.5484 10.9147 5.2834 11.8323 5.2834Z" stroke="#333333" stroke-width="0.75" stroke-miterlimit="10"/>
<path d="M15.3338 9.3746C15.335 9.33586 15.3453 9.29942 15.3453 9.2584C15.3453 7.09261 13.7727 5.33812 11.8323 5.33812C9.89194 5.33812 8.31934 7.09379 8.31934 9.25959C8.31934 9.29946 8.32972 9.33473 8.32972 9.3746H15.3338Z" stroke="#333333" stroke-width="0.75" stroke-miterlimit="10" stroke-linecap="round" stroke-linejoin="round"/>
<path d="M5.51295 16.9088C6.4305 16.9088 7.17433 16.1737 7.17433 15.267C7.17433 14.3603 6.4305 13.6253 5.51295 13.6253C4.59539 13.6253 3.85156 14.3603 3.85156 15.267C3.85156 16.1737 4.59539 16.9088 5.51295 16.9088Z" stroke="#333333" stroke-width="0.75" stroke-miterlimit="10"/>
<path d="M9.01448 21C9.01563 20.9613 9.026 20.9248 9.026 20.8838C9.026 18.718 7.4534 16.9634 5.513 16.9634C3.57261 16.9634 2 18.7191 2 20.8849C2 20.9248 2.01038 20.9601 2.01038 21H9.01448Z" stroke="#333333" stroke-width="0.75" stroke-miterlimit="10" stroke-linecap="round" stroke-linejoin="round"/>
<path d="M18.47 16.8883C19.3875 16.8883 20.1313 16.1533 20.1313 15.2466C20.1313 14.3399 19.3875 13.6048 18.47 13.6048C17.5524 13.6048 16.8086 14.3399 16.8086 15.2466C16.8086 16.1533 17.5524 16.8883 18.47 16.8883Z" stroke="#333333" stroke-width="0.75" stroke-miterlimit="10"/>
<path d="M21.9875 20.9704C21.9887 20.9317 21.999 20.8952 22.0002 20.8542C21.9921 18.6884 20.4126 16.9372 18.4757 16.9429C16.5341 16.9486 14.9661 18.7088 14.9742 20.8746C14.9731 20.9145 14.9834 20.9487 14.9811 20.9886L21.9875 20.9704Z" stroke="#333333" stroke-width="0.75" stroke-miterlimit="10" stroke-linecap="round" stroke-linejoin="round"/>
<path d="M16.7461 6.21883C16.7427 6.21541 16.6804 6.16068 16.6781 6.1584C16.5005 6.00459 16.2584 6.04448 16.0993 6.22335C15.9414 6.39766 15.9852 6.69164 16.1616 6.84772C16.9041 7.50851 17.4863 8.29572 17.8956 9.18437C18.2611 9.98871 18.4686 10.842 18.5147 11.7239C18.5274 11.9563 18.7315 12.1386 18.9701 12.1272C19.0243 12.126 19.0797 12.1112 19.1281 12.0907C19.2849 12.019 19.3921 11.8617 19.3829 11.6794C19.3299 10.6951 19.0947 9.73698 18.6865 8.83808C18.23 7.83778 17.5762 6.95595 16.7461 6.21883Z" fill="#333333"/>
<path d="M5.96613 9.25501C6.3443 8.47118 6.85851 7.76823 7.49608 7.16668C7.66902 7.00376 7.67594 6.73264 7.51107 6.56289C7.34505 6.39313 7.07295 6.38627 6.90001 6.54919C6.18404 7.22251 5.60757 8.0086 5.18444 8.88814C4.70828 9.87932 4.44887 10.9423 4.41428 12.0543L4.41313 12.0941C4.41082 12.2616 4.50537 12.3961 4.64718 12.4644C4.70252 12.4918 4.76708 12.5054 4.83511 12.5077C5.07377 12.5122 5.27206 12.3095 5.27898 12.0736C5.31011 11.0859 5.54185 10.138 5.96613 9.25501Z" fill="#333333"/>
<path d="M14.784 17.1071C13.0546 17.8522 11.0911 17.8909 9.33175 17.2198C9.10924 17.1321 8.8579 17.2437 8.77258 17.4648C8.68611 17.6835 8.7968 17.9319 9.01931 18.0162C9.95319 18.3728 10.9297 18.5539 11.9247 18.5539C13.0315 18.5539 14.1107 18.3306 15.0953 17.9045C15.116 17.8988 15.1541 17.8818 15.1714 17.8727C15.3812 17.769 15.4596 17.524 15.3605 17.3143C15.259 17.1036 15.0007 17.0136 14.784 17.1071Z" fill="#333333"/>
</svg>
