<svg width="24" height="24" viewBox="0 0 24 24" fill="none" xmlns="http://www.w3.org/2000/svg">
<path d="M13.2126 14.1301C13.0643 14.0629 12.8945 14.1363 12.8321 14.2934C12.7042 14.6149 12.4096 14.8206 12.0798 14.8206C11.751 14.8206 11.4553 14.6149 11.3275 14.2934C11.2661 14.1363 11.0953 14.0619 10.947 14.1301C10.7997 14.1942 10.7294 14.3751 10.7919 14.5312C11.0114 15.0811 11.5168 15.4377 12.0788 15.4377C12.6418 15.4377 13.1472 15.0811 13.3667 14.5312C13.4302 14.3751 13.3609 14.1932 13.2126 14.1301Z" fill="#333333"/>
<path d="M20.8827 20.6681H17.0004L16.816 19.7129C16.696 19.0938 16.3925 18.5511 15.9739 18.1448H18.3683C18.5293 18.1448 18.6581 18.0063 18.6581 17.8368V15.7499C18.6581 15.5793 18.5283 15.4408 18.3683 15.4408C18.2083 15.4408 18.0776 15.5793 18.0776 15.7499V17.5277H15.0031C14.7182 17.4233 14.4148 17.3676 14.1016 17.3676H13.6576V17.0802C15.5397 17.0233 17.1165 15.6527 17.5956 13.8055C17.7634 13.7921 17.9244 13.758 18.0766 13.7022V14.5198C18.0766 14.6893 18.2073 14.8268 18.3673 14.8268C18.5283 14.8268 18.6571 14.6893 18.6571 14.5198V13.3755C19.1245 12.994 19.425 12.3966 19.425 11.7247C19.425 11.5686 19.4094 11.4126 19.3772 11.2637C19.2865 10.8358 19.0142 10.5226 18.6571 10.3986V8.20302C18.6571 4.78158 16.0315 2 12.8029 2H11.3579C8.12926 2 5.50365 4.78158 5.50365 8.20302V10.3986C5.14752 10.5236 4.87432 10.8358 4.78455 11.2637C4.75236 11.4136 4.73577 11.5686 4.73577 11.7247C4.73577 12.3945 5.03726 12.993 5.50365 13.3755V17.8368C5.50365 18.0063 5.63341 18.1448 5.79343 18.1448H8.18196C7.91949 18.3991 7.70289 18.7092 7.54677 19.0617C7.47945 19.2137 7.54189 19.3977 7.68727 19.4711C7.72728 19.4907 7.76826 19.4989 7.81021 19.4989C7.91851 19.4989 8.02389 19.4338 8.07366 19.3211C8.43174 18.5087 9.21132 17.9836 10.0582 17.9836H10.5315C10.6681 18.7578 11.311 19.3459 12.0809 19.3459C12.8507 19.3459 13.4937 18.7578 13.6303 17.9836H14.1006C15.1358 17.9836 16.0383 18.762 16.2462 19.837L16.4793 21.0381C16.5067 21.1776 16.6228 21.2821 16.7642 21.2821H18.6259V22.3849H15.8149C15.5905 22.3849 15.4061 22.1906 15.4061 21.9529V20.9751C15.4061 20.8055 15.2763 20.667 15.1163 20.667C14.9563 20.667 14.8265 20.8055 14.8265 20.9751V21.9529C14.8265 22.1048 14.8577 22.2526 14.9153 22.3849H9.24547C9.30304 22.2526 9.33427 22.1048 9.33427 21.9529V20.9751C9.33427 20.8055 9.20449 20.667 9.0435 20.667C8.88251 20.667 8.75372 20.8055 8.75372 20.9751V21.9529C8.75372 22.1896 8.57029 22.3849 8.3449 22.3849H5.53389V21.2821H7.39163C7.39261 21.2821 7.39359 21.2831 7.39554 21.2831C7.53019 21.2831 7.65118 21.1838 7.67947 21.0381L7.79558 20.4396C7.82777 20.2722 7.7263 20.1109 7.57019 20.0758C7.4131 20.0417 7.25991 20.1491 7.22772 20.3145L7.15942 20.667H3.27709C3.1161 20.667 2.98633 20.8055 2.98633 20.9751V21.3875C2.98633 22.2754 3.66933 23 4.50843 23H19.6523C20.4914 23 21.1744 22.2764 21.1744 21.3875V20.9751C21.1735 20.8066 21.0437 20.6681 20.8827 20.6681ZM18.8113 11.3981C18.8337 11.5046 18.8454 11.6131 18.8454 11.7247C18.8454 12.441 18.3576 13.0396 17.7146 13.1698C17.7351 12.9899 17.8024 11.4177 17.7517 11.4415C17.7858 11.1221 18.0219 10.9805 18.2259 10.9546C18.4464 10.9298 18.7332 11.0311 18.8113 11.3981ZM6.08419 8.20302C6.08419 5.12372 8.44929 2.615 11.3579 2.615H12.8029C15.7115 2.615 18.0776 5.12372 18.0776 8.20302V10.3572C17.9575 10.3809 17.8473 10.4213 17.7458 10.476V9.49612C17.7458 9.35347 17.6531 9.22946 17.5214 9.19638C16.0071 8.82632 14.9846 6.65766 14.9748 6.63492C14.9338 6.54602 14.8548 6.48301 14.7621 6.46647C14.6704 6.44993 14.5758 6.48299 14.5094 6.55328C13.8352 7.26548 12.5141 7.94871 10.789 8.47072C9.39183 8.89452 7.78582 9.19018 6.69693 9.22326C6.53985 9.22946 6.41495 9.36587 6.41495 9.53126V10.476C6.31348 10.4202 6.20323 10.3809 6.08419 10.3572V8.20302ZM5.31631 11.7258C5.31631 11.6142 5.32802 11.5045 5.35046 11.3991C5.42852 11.0322 5.71538 10.9309 5.93589 10.9567C6.14078 10.9815 6.3769 11.1242 6.41105 11.4436C6.37202 11.425 6.42667 12.992 6.44716 13.1719C5.80319 13.0406 5.31631 12.4421 5.31631 11.7258ZM10.5041 17.3686H10.0582C9.74601 17.3686 9.44256 17.4244 9.15571 17.5288H6.08419V13.7042C6.2364 13.759 6.39739 13.7931 6.56521 13.8066C7.04428 15.6548 8.62102 17.0243 10.5041 17.0812V17.3686ZM13.0771 17.6756C13.0771 18.2586 12.6302 18.7309 12.0809 18.7309C11.5316 18.7309 11.0847 18.2586 11.0847 17.6756V17.0833H13.0771V17.6756ZM13.5376 16.4682H10.6232C8.62298 16.4682 6.9955 14.7441 6.9955 12.6251V9.82589C9.02399 9.69565 12.8634 8.79946 14.6362 7.26033C15.0021 7.91878 15.8959 9.29564 17.1653 9.73082V12.6261C17.1653 14.7441 15.5388 16.4682 13.5376 16.4682ZM4.95237 22.386H4.50745C3.98935 22.386 3.56687 21.9374 3.56687 21.3885V21.2821H4.95237V22.386ZM20.5929 21.3885C20.5929 21.9374 20.1704 22.386 19.6514 22.386H19.2064V21.2831H20.5929V21.3885Z" fill="#333333"/>
<path d="M15.2638 11.0219C15.136 11.3444 14.8403 11.5521 14.5115 11.5521C14.1827 11.5521 13.8871 11.3444 13.7593 11.0219C13.6968 10.8668 13.527 10.7924 13.3787 10.8585C13.2314 10.9247 13.1621 11.1046 13.2236 11.2627C13.4431 11.8116 13.9485 12.1672 14.5105 12.1672C15.0735 12.1672 15.5789 11.8116 15.7975 11.2627C15.8599 11.1056 15.7907 10.9257 15.6424 10.8585C15.496 10.7924 15.3262 10.8668 15.2638 11.0219Z" fill="#333333"/>
<path d="M10.7821 10.8585C10.6338 10.7934 10.464 10.8668 10.4015 11.0219C10.2737 11.3444 9.9781 11.5521 9.64929 11.5521C9.32047 11.5521 9.02483 11.3444 8.89701 11.0219C8.83457 10.8668 8.6648 10.7924 8.51649 10.8585C8.36916 10.9247 8.29989 11.1046 8.36233 11.2627C8.58089 11.8116 9.0863 12.1672 9.64929 12.1672C10.2123 12.1672 10.7177 11.8116 10.9362 11.2627C10.9987 11.1046 10.9294 10.9247 10.7821 10.8585Z" fill="#333333"/>
<path d="M3.44403 8.83146C3.63332 8.83146 3.78748 8.66815 3.78748 8.46762V8.0521C3.78748 7.85261 3.63429 7.68826 3.44403 7.68826C3.25377 7.68826 3.10059 7.85157 3.10059 8.0521V8.46762C3.10156 8.66815 3.25474 8.83146 3.44403 8.83146Z" fill="#333333"/>
<path d="M3.78467 9.21809C3.78467 9.41862 3.93883 9.58193 4.12811 9.58193H4.52035C4.70866 9.58193 4.8638 9.41965 4.8638 9.21809C4.8638 9.01652 4.70963 8.85425 4.52035 8.85425H4.12811C3.93883 8.85425 3.78467 9.01756 3.78467 9.21809Z" fill="#333333"/>
<path d="M2 9.1943C2 9.39483 2.15417 9.55814 2.34345 9.55814H2.73569C2.924 9.55814 3.07913 9.39587 3.07913 9.1943C3.07913 8.99274 2.92497 8.83046 2.73569 8.83046H2.34345C2.15417 8.83149 2 8.99377 2 9.1943Z" fill="#333333"/>
<path d="M3.43329 10.7252C3.62258 10.7252 3.77674 10.5619 3.77674 10.3613V9.94577C3.77674 9.74627 3.62355 9.58192 3.43329 9.58192C3.24303 9.58192 3.08984 9.74523 3.08984 9.94577V10.3613C3.08984 10.5619 3.24303 10.7252 3.43329 10.7252Z" fill="#333333"/>
<path d="M20.5803 16.0671C20.7696 16.0671 20.9237 15.9038 20.9237 15.7033V15.2878C20.9237 15.0883 20.7705 14.924 20.5803 14.924C20.39 14.924 20.2368 15.0873 20.2368 15.2878V15.7033C20.2368 15.9038 20.391 16.0671 20.5803 16.0671Z" fill="#333333"/>
<path d="M20.9209 16.4538C20.9209 16.6543 21.0751 16.8176 21.2644 16.8176H21.6566C21.8449 16.8176 22 16.6553 22 16.4538C22 16.2522 21.8459 16.0899 21.6566 16.0899H21.2644C21.0751 16.0899 20.9209 16.2532 20.9209 16.4538Z" fill="#333333"/>
<path d="M19.1362 16.43C19.1362 16.6305 19.2904 16.7938 19.4797 16.7938H19.8719C20.0602 16.7938 20.2154 16.6316 20.2154 16.43C20.2154 16.2284 20.0612 16.0661 19.8719 16.0661H19.4797C19.2904 16.0672 19.1362 16.2295 19.1362 16.43Z" fill="#333333"/>
<path d="M20.5685 17.9609C20.7578 17.9609 20.912 17.7976 20.912 17.597V17.1815C20.912 16.982 20.7588 16.8176 20.5685 16.8176C20.3783 16.8176 20.2251 16.9809 20.2251 17.1815V17.597C20.2261 17.7976 20.3792 17.9609 20.5685 17.9609Z" fill="#333333"/>
<path d="M19.6965 4.63169C19.8858 4.63169 20.0399 4.46838 20.0399 4.26785V3.85234C20.0399 3.65284 19.8867 3.48849 19.6965 3.48849C19.5062 3.48849 19.353 3.6518 19.353 3.85234V4.26785C19.353 4.46838 19.5062 4.63169 19.6965 4.63169Z" fill="#333333"/>
<path d="M20.0361 5.01829C20.0361 5.21882 20.1903 5.38213 20.3796 5.38213H20.7718C20.9601 5.38213 21.1152 5.21986 21.1152 5.01829C21.1152 4.81672 20.9611 4.65445 20.7718 4.65445H20.3796C20.1913 4.65548 20.0361 4.81776 20.0361 5.01829Z" fill="#333333"/>
<path d="M18.2515 4.99552C18.2515 5.19606 18.4056 5.35943 18.5949 5.35943H18.9871C19.1755 5.35943 19.3306 5.19709 19.3306 4.99552C19.3306 4.79396 19.1764 4.63168 18.9871 4.63168H18.5949C18.4056 4.63168 18.2515 4.79499 18.2515 4.99552Z" fill="#333333"/>
<path d="M19.6848 6.5254C19.874 6.5254 20.0282 6.36209 20.0282 6.16156V5.74598C20.0282 5.54648 19.875 5.38214 19.6848 5.38214C19.4945 5.38214 19.3413 5.54545 19.3413 5.74598V6.16156C19.3413 6.36209 19.4955 6.5254 19.6848 6.5254Z" fill="#333333"/>
<path d="M19.4807 14.3037C19.6703 14.3037 19.8241 14.1408 19.8241 13.9399C19.8241 13.7389 19.6703 13.576 19.4807 13.576C19.291 13.576 19.1372 13.7389 19.1372 13.9399C19.1372 14.1408 19.291 14.3037 19.4807 14.3037Z" fill="#333333"/>
</svg>
