<svg width="24" height="24" viewBox="0 0 24 24" fill="none" xmlns="http://www.w3.org/2000/svg">
<path d="M6.95925 18.4313C6.91721 18.2494 6.73437 18.134 6.54957 18.178C6.36478 18.222 6.24843 18.4039 6.28949 18.5877L6.37651 18.9661C6.41758 19.1479 6.60139 19.2633 6.78619 19.2193C6.97098 19.1762 7.08733 18.9934 7.04627 18.8096L6.95925 18.4313Z" fill="#333333"/>
<path d="M15.3098 9.10217C15.7106 9.10217 16.0939 8.91347 16.3628 8.58301C16.4821 8.43635 16.4596 8.22027 16.312 8.10001C16.1643 7.97975 15.9482 8.00227 15.828 8.1499C15.6891 8.32197 15.5053 8.41485 15.3098 8.41485C15.1142 8.41485 14.9304 8.32099 14.7916 8.1499C14.6723 8.00324 14.4552 7.97975 14.3076 8.10001C14.1609 8.22027 14.1374 8.43635 14.2577 8.58301C14.5246 8.91347 14.9089 9.10217 15.3098 9.10217Z" fill="#333333"/>
<path d="M13.7387 7.13891C13.9284 7.13891 14.0829 6.98444 14.0829 6.79477V6.40176C14.0829 6.21307 13.9294 6.05762 13.7387 6.05762C13.548 6.05762 13.3945 6.21209 13.3945 6.40176V6.79477C13.3955 6.98444 13.549 7.13891 13.7387 7.13891Z" fill="#333333"/>
<path d="M16.8803 7.13891C17.07 7.13891 17.2245 6.98444 17.2245 6.79477V6.40176C17.2245 6.21307 17.071 6.05762 16.8803 6.05762C16.6896 6.05762 16.5361 6.21209 16.5361 6.40176V6.79477C16.5371 6.98444 16.6906 7.13891 16.8803 7.13891Z" fill="#333333"/>
<path d="M22.4691 14.6936C22.1249 14.2458 21.6419 13.9231 21.0963 13.7765L17.7739 12.8907C17.6957 12.8702 17.6273 12.8242 17.5774 12.7597C17.5285 12.6961 17.5011 12.6169 17.5011 12.5358V11.2638C17.9568 10.9236 18.3264 10.4807 18.5806 9.97227C18.8358 9.4629 18.9678 8.9017 18.9678 8.33268C19.3569 8.33268 19.7294 8.17824 20.0051 7.90351C20.2809 7.62878 20.4344 7.25625 20.4344 6.86615C20.4344 6.47605 20.2799 6.10455 20.0051 5.82885C19.7304 5.55314 19.3569 5.39961 18.9678 5.39961V3.24481C18.9678 3.02776 18.9218 2.81267 18.8328 2.61322C18.7438 2.41377 18.6148 2.23679 18.4525 2.0921C18.2902 1.9474 18.0995 1.83789 17.8922 1.77141C17.685 1.7059 17.4659 1.68342 17.2498 1.70786C16.7277 1.2503 16.058 0.998056 15.3638 1.00001H12.0013C11.9035 1.00001 11.8106 1.03815 11.7422 1.10659C11.6737 1.17503 11.6346 1.26888 11.6346 1.36664C11.6346 1.85745 11.7979 2.3326 12.101 2.71879C11.7911 3.1871 11.6288 3.73852 11.6346 4.29971V5.39961C11.2455 5.39961 10.873 5.55412 10.5972 5.82885C10.3215 6.10358 10.168 6.47605 10.168 6.86615C10.168 7.25625 10.3225 7.6278 10.5972 7.90351C10.872 8.17922 11.2455 8.33268 11.6346 8.33268C11.6346 8.9017 11.7666 9.4629 12.0208 9.97227C12.276 10.4816 12.6456 10.9246 13.1013 11.2638V12.5358C13.1013 12.616 13.0749 12.6952 13.025 12.7597C12.9751 12.8242 12.9067 12.8692 12.8285 12.8907L9.50607 13.7765C8.86271 13.9485 8.31223 14.3631 7.96904 14.9331H2.02824C1.87473 14.9331 1.7222 14.9673 1.58336 15.0348C1.44452 15.1022 1.3223 15.198 1.22648 15.3183C1.13067 15.4376 1.06222 15.5784 1.02702 15.728C0.991822 15.8775 0.990846 16.034 1.02507 16.1845L2.32938 22.0555C2.35774 22.1817 2.63542 22.954 3.50562 23H22.6333C22.7311 23 22.824 22.9619 22.8924 22.8934C22.9609 22.825 23 22.7311 23 22.6334V16.2579C23 15.6908 22.8132 15.1414 22.4691 14.6936ZM18.9678 6.1339C19.1623 6.1339 19.3491 6.21111 19.486 6.34896C19.6228 6.48681 19.7011 6.6726 19.7011 6.86716C19.7011 7.06172 19.6238 7.24843 19.486 7.38531C19.3481 7.52219 19.1613 7.60043 18.9678 7.60043V6.1339ZM11.6346 7.60043C11.4401 7.60043 11.2533 7.52316 11.1164 7.38531C10.9795 7.24745 10.9013 7.06172 10.9013 6.86716C10.9013 6.6726 10.9786 6.48584 11.1164 6.34896C11.2543 6.21208 11.441 6.1339 11.6346 6.1339V7.60043ZM17.5011 2.43623C17.7025 2.45676 17.8883 2.54966 18.0242 2.70023C18.1592 2.84981 18.2344 3.04537 18.2344 3.24678V4.58227C17.9626 4.112 17.7182 3.62513 17.5011 3.12749V2.43623ZM15.3638 1.73429C15.88 1.73234 16.3796 1.91906 16.7678 2.2593V2.83419H13.8346C13.509 2.83419 13.1941 2.72565 12.937 2.52717C12.6798 2.3287 12.496 2.05009 12.4139 1.73429H15.3638ZM12.3679 4.30073C12.366 3.92236 12.4638 3.54888 12.6525 3.22136C12.7639 3.29273 12.8822 3.35431 13.0054 3.40515C12.8255 3.8324 12.6134 4.24399 12.3689 4.638V4.30073H12.3679ZM12.3679 8.3337V5.89729C12.935 5.1914 13.3946 4.40631 13.7319 3.56549C13.7661 3.56647 13.8003 3.56746 13.8346 3.56746H16.8939C17.1022 4.03382 17.6165 5.11612 18.2344 5.89729V8.3337C18.2344 9.11194 17.9255 9.85789 17.375 10.4074C16.8245 10.9578 16.0795 11.2668 15.3012 11.2668C14.5239 11.2668 13.7769 10.9578 13.2274 10.4074C12.6769 9.85789 12.3679 9.11194 12.3679 8.3337ZM16.9272 13.1058C17.0308 13.2779 17.1804 13.4167 17.3574 13.5105C17.2 13.929 16.9184 14.2888 16.5508 14.543C16.1841 14.7982 15.7471 14.9331 15.3002 14.9331C14.8534 14.9331 14.4173 14.7972 14.0497 14.543C13.682 14.2888 13.4004 13.929 13.243 13.5105C13.421 13.4167 13.5696 13.2779 13.6732 13.1058C13.7769 12.9337 13.8326 12.7372 13.8326 12.5368V11.694C14.2951 11.8964 14.7947 12 15.2992 12C15.8038 12 16.3034 11.8964 16.7659 11.694V12.5368C16.7678 12.7372 16.8226 12.9337 16.9272 13.1058ZM15.3012 22.2658H12.454C12.5498 22.0419 12.5752 21.7955 12.5273 21.5569L12.5224 21.5325H15.3012V22.2658ZM22.2677 22.2658H20.0677V18.9661H22.2677V22.2658ZM22.2677 18.2328H20.0677V17.5807V17.1876V17.1329H20.056C20.0276 16.9706 19.8829 16.8435 19.7011 16.8435C19.5192 16.8435 19.3755 16.9706 19.3461 17.1329H19.3344V17.1876V17.5807V22.2658H16.0345V21.1659C16.0345 21.0681 15.9954 20.9752 15.9269 20.9058C15.8585 20.8364 15.7646 20.7992 15.6678 20.7992H12.3748L11.3961 15.903C11.3403 15.6302 11.1927 15.3838 10.9766 15.2078C10.7615 15.0299 10.4907 14.9331 10.212 14.9331H10.168V14.937C10.0233 14.9487 9.90597 15.1042 9.90597 15.2997C9.90597 15.4943 10.0233 15.6507 10.168 15.6624V15.6664H10.1836H10.212C10.3215 15.6664 10.4281 15.7045 10.5132 15.7739C10.5972 15.8433 10.6559 15.9391 10.6774 16.0467L11.8077 21.6997C11.8214 21.7681 11.8204 21.8395 11.8028 21.907C11.7862 21.9744 11.7539 22.0379 11.7099 22.0917C11.6649 22.1465 11.6092 22.1895 11.5466 22.2188C11.4841 22.2491 11.4146 22.2648 11.3442 22.2648H3.50758C3.40002 22.2648 3.2954 22.2286 3.21132 22.1621C3.12723 22.0956 3.06857 21.9998 3.04608 21.8952L1.74176 16.0242C1.73198 15.9812 1.73198 15.9362 1.74176 15.8932C1.75154 15.8511 1.77109 15.811 1.79847 15.7768C1.82584 15.7426 1.86104 15.7143 1.90113 15.6947C1.94121 15.6752 1.98424 15.6664 2.02824 15.6664H8.88129C8.88227 15.6664 8.88324 15.6673 8.8852 15.6673H9.20296C9.35549 15.6673 9.48065 15.506 9.48065 15.3056C9.48065 15.1061 9.35549 14.9438 9.20296 14.9438H9.16875V14.9331H8.89987C9.12279 14.719 9.39656 14.5645 9.69477 14.4853L12.542 13.7266C12.7463 14.2947 13.1208 14.7864 13.6146 15.1325C14.1083 15.4796 14.6979 15.6664 15.3012 15.6664C15.9054 15.6664 16.4941 15.4806 16.9878 15.1325C17.4816 14.7864 17.8561 14.2947 18.0604 13.7266L20.9076 14.4853C21.2977 14.589 21.6419 14.8206 21.8883 15.1404C22.1347 15.4601 22.2677 15.8531 22.2686 16.2569V18.2328H22.2677Z" fill="#333333"/>
</svg>
