<svg width="24" height="24" viewBox="0 0 24 24" fill="none" xmlns="http://www.w3.org/2000/svg">
<path d="M9.83784 7.69603C9.64384 7.69603 9.48584 7.85398 9.48584 8.04785V8.44957C9.48584 8.64245 9.64284 8.80133 9.83784 8.80133C10.0328 8.80133 10.1898 8.64345 10.1898 8.44957V8.04785C10.1898 7.85398 10.0328 7.69603 9.83784 7.69603Z" fill="#333333" stroke="#333333" stroke-width="0.5" stroke-miterlimit="10"/>
<path d="M15.0571 7.71504C14.8631 7.71504 14.7051 7.87293 14.7051 8.0668V8.46852C14.7051 8.6614 14.8621 8.82029 15.0571 8.82029C15.2521 8.82029 15.4091 8.6624 15.4091 8.46852V8.0668C15.4091 7.87293 15.2511 7.71504 15.0571 7.71504Z" fill="#333333" stroke="#333333" stroke-width="0.5" stroke-miterlimit="10"/>
<path d="M19 21.1264C19 22.161 18.1647 23 17.1349 23H7.86508C6.83432 23 6 22.16 6 21.1264V2.87359C6 1.83808 6.83531 1 7.86508 1H17.1349C18.1657 1 19 1.83902 19 2.87359V21.1264Z" stroke="#333333" stroke-width="0.75" stroke-miterlimit="10"/>
<path d="M10.7002 1.43309H14.3402" stroke="#333333" stroke-width="0.75" stroke-miterlimit="10" stroke-linecap="round"/>
<path d="M8.9248 11.9293C8.9248 11.9293 12.2378 15.6609 15.9718 11.9293" stroke="#333333" stroke-width="0.75" stroke-miterlimit="10" stroke-linecap="round"/>
<path d="M8.18506 22.1257H16.9131" stroke="#333333" stroke-width="0.75" stroke-miterlimit="10" stroke-linecap="round"/>
</svg>
