<svg width="24" height="24" viewBox="0 0 24 24" fill="none" xmlns="http://www.w3.org/2000/svg">
<path d="M19.8049 12.685C19.612 12.685 19.4556 12.8414 19.4556 13.0342C19.4556 13.2788 19.2567 13.4777 19.0121 13.4777C18.7676 13.4777 18.5686 13.2788 18.5686 13.0342C18.5686 12.8413 18.4123 12.685 18.2194 12.685C18.0265 12.685 17.8701 12.8414 17.8701 13.0342C17.8701 13.664 18.3825 14.1763 19.0121 14.1763C19.6418 14.1763 20.1542 13.6639 20.1542 13.0342C20.1542 12.8413 19.9978 12.685 19.8049 12.685Z" fill="#333333"/>
<path d="M23.0833 12.742L22.1003 12.4271C21.9743 12.3868 21.8751 12.2863 21.8348 12.1582C21.6277 11.4995 21.315 10.8811 20.9055 10.3201C20.7189 10.0644 20.5114 9.82021 20.2847 9.58775C20.4298 8.95152 20.5086 8.23147 20.4984 7.6094C20.4838 6.71947 20.3059 6.19752 19.9547 6.01358C19.7656 5.9144 19.19 5.61308 16.0743 7.0393C16.0005 7.07305 15.9316 7.11463 15.8678 7.16225C15.6578 7.10582 15.4431 7.0536 15.2271 7.00672C15.2011 7.00105 15.1743 6.99604 15.1481 6.99051C15.4005 6.43897 15.548 5.83996 15.5757 5.22159C15.5843 5.02884 15.4351 4.86562 15.2423 4.85704C15.0501 4.84748 14.8864 4.99757 14.8778 5.19032C14.8323 6.20708 14.4105 7.16375 13.6902 7.88408C13.2599 8.31444 12.756 8.62705 12.2189 8.82393C11.2875 8.69324 10.3389 8.69324 9.40753 8.82393C8.87044 8.62705 8.36658 8.31444 7.93622 7.88408C7.16775 7.11561 6.74452 6.09388 6.74452 5.00709C6.74452 3.92024 7.16775 2.89856 7.93622 2.13009C8.70469 1.36157 9.72647 0.938339 10.8132 0.938339C11.9 0.938339 12.9218 1.36157 13.6902 2.13009C13.999 2.4389 14.2542 2.79131 14.4487 3.17742C14.5355 3.34973 14.7455 3.4191 14.9178 3.33229C15.0901 3.24557 15.1594 3.03552 15.0727 2.86326C14.8447 2.41049 14.5458 1.99767 14.1842 1.63607C13.2838 0.735652 12.0866 0.239761 10.8133 0.239761C9.53991 0.239761 8.34272 0.735652 7.4423 1.63607C6.54187 2.53654 6.04598 3.73368 6.04598 5.00704C6.04598 6.2804 6.54187 7.47758 7.4423 8.378C7.70203 8.63774 7.98459 8.8611 8.28347 9.04822C8.28356 9.04822 8.28366 9.04817 8.28375 9.04817C8.06658 9.10461 7.85105 9.16799 7.63791 9.23924C7.45495 9.30041 7.35623 9.49827 7.41741 9.68127C7.47853 9.86422 7.67648 9.96294 7.85939 9.90182C9.7642 9.26502 11.8623 9.26502 13.7671 9.90182C13.8039 9.9141 13.8412 9.91991 13.8779 9.91991C14.024 9.91991 14.1602 9.82747 14.2091 9.68127C14.2703 9.49832 14.1716 9.30041 13.9886 9.23924C13.7755 9.16799 13.56 9.10457 13.3428 9.04817C13.3429 9.04817 13.343 9.04822 13.3431 9.04822C13.642 8.8611 13.9245 8.63774 14.1842 8.378C14.414 8.14822 14.6168 7.8973 14.793 7.63063C14.8892 7.64933 14.9848 7.66893 15.079 7.68936C15.2044 7.7166 15.3293 7.74585 15.453 7.77655C15.4492 7.79174 15.4452 7.80688 15.4419 7.8223C15.2716 8.63066 15.2827 9.3456 15.4748 9.94714C15.6475 10.4878 15.9592 10.9259 16.401 11.2492C16.9219 11.6302 17.5507 11.7948 18.1202 11.7948C18.5489 11.7948 18.9441 11.7015 19.2344 11.5371C19.5627 11.3511 19.8377 10.9593 20.0555 10.371C20.1561 10.4885 20.2515 10.6088 20.3414 10.732C20.706 11.2314 20.9843 11.7818 21.1686 12.3679C21.2768 12.7121 21.5455 12.9829 21.8873 13.0925L22.8703 13.4074C23.1283 13.49 23.3016 13.7274 23.3016 13.9983V15.6283C23.3016 15.8992 23.1283 16.1366 22.8703 16.2192L21.2865 16.7266C21.033 16.8078 20.8186 16.982 20.6826 17.217C20.0603 18.2924 19.082 19.1823 17.7746 19.862C17.6236 19.9407 17.519 20.0812 17.4875 20.2478L16.9802 22.9339C16.9662 23.0079 16.9013 23.0616 16.826 23.0616H15.1766C15.1013 23.0616 15.0365 23.0079 15.0225 22.9339L14.7415 21.4494C14.6862 21.1573 14.4122 20.9633 14.1174 21.008C13.4069 21.1154 12.6748 21.1699 11.9415 21.1699C11.396 21.1699 10.8575 21.1394 10.3408 21.0794C10.0551 21.0465 9.78891 21.2413 9.73552 21.5234L9.46852 22.9339C9.4545 23.0079 9.38967 23.0616 9.31434 23.0616H7.66495C7.58962 23.0616 7.5248 23.0079 7.51059 22.9328L7.02216 20.3958C6.9907 20.2324 6.88805 20.0934 6.74034 20.0145C4.51172 18.8247 3.33375 16.8371 3.33375 14.2664C3.33375 12.9676 3.61791 11.8191 4.1783 10.8528C4.70123 9.95094 5.46502 9.2053 6.44841 8.63647C6.61537 8.53986 6.67242 8.32621 6.57586 8.15919C6.4793 7.99222 6.26564 7.93527 6.09863 8.03174C4.1918 9.1348 3.04172 10.8365 2.72508 12.998V12.9979C2.69147 12.9949 2.65781 12.992 2.6243 12.9885C2.63039 12.7553 2.5882 12.52 2.49633 12.2916C2.29369 11.7879 1.87744 11.4243 1.43583 11.3654C1.08783 11.3188 0.756656 11.4665 0.526828 11.7702C0.193594 12.2105 0.247922 12.559 0.352125 12.7738C0.528047 13.1363 0.98025 13.3927 1.73067 13.5539C1.71005 13.5848 1.68736 13.6158 1.66252 13.647C1.21913 14.2031 0.69675 14.326 0.357562 14.3376C0.159 14.3443 0 14.5037 0 14.7024V14.7041C0 14.9001 0.154641 15.0599 0.350437 15.0689C0.375516 15.0701 0.401719 15.0707 0.429 15.0707C0.858188 15.0707 1.54702 14.9124 2.2088 14.0825C2.31328 13.9516 2.39841 13.8134 2.46384 13.6706C2.52975 13.6781 2.59308 13.6844 2.65373 13.6901C2.65373 13.6899 2.65373 13.6898 2.65378 13.6897C2.64188 13.879 2.63527 14.071 2.63527 14.2664C2.63527 15.7209 2.982 17.0177 3.66577 18.121C4.29623 19.1382 5.19891 19.971 6.34959 20.5974L6.82444 23.0637C6.9008 23.4672 7.25428 23.7601 7.66495 23.7601H9.31434C9.72502 23.7601 10.0785 23.4672 10.1549 23.0637L10.3963 21.7884C10.8976 21.8415 11.4167 21.8684 11.9415 21.8684C12.6615 21.8684 13.3807 21.8182 14.0815 21.7192L14.336 23.0638C14.4124 23.4673 14.7659 23.7602 15.1765 23.7602H16.8259C17.2366 23.7602 17.5901 23.4673 17.6665 23.0636L18.1604 20.4484C19.5558 19.7106 20.6076 18.7413 21.2872 17.5668C21.3361 17.4822 21.4116 17.42 21.4995 17.3919L23.0833 16.8845C23.6316 16.7088 24 16.204 24 15.6282V13.9982C24 13.4225 23.6316 12.9177 23.0833 12.742ZM19.7474 8.59091C19.613 9.74057 19.2524 10.724 18.89 10.9292C18.4782 11.1625 17.5273 11.2076 16.8134 10.6853C16.0987 10.1625 15.8608 9.22227 16.1254 7.9663C16.1254 7.96625 16.1254 7.96625 16.1254 7.96625C16.152 7.84011 16.2416 7.73099 16.3651 7.67446C18.1137 6.87402 19.1219 6.61222 19.4964 6.61222C19.5529 6.61222 19.595 6.61818 19.623 6.62915C19.7355 6.74905 19.8831 7.43066 19.7474 8.59091ZM0.980672 12.4688C0.944531 12.3943 1.02984 12.2632 1.08394 12.1917C1.16967 12.0785 1.24866 12.0553 1.30833 12.0553C1.32094 12.0553 1.3327 12.0563 1.34348 12.0578C1.50408 12.0792 1.72908 12.2559 1.84828 12.5522C1.87636 12.622 1.91283 12.7375 1.92136 12.8816C1.43784 12.7814 1.06219 12.637 0.980672 12.4688Z" fill="#333333"/>
<path d="M11.1523 4.60673V3.35686C11.5834 3.38766 11.7435 3.58467 11.8912 3.58467C12.076 3.58467 12.1622 3.35072 12.1622 3.23372C12.1622 2.93198 11.571 2.8027 11.1523 2.79037V2.62406C11.1523 2.55019 11.06 2.48245 10.9676 2.48245C10.8629 2.48245 10.789 2.55019 10.789 2.62406V2.80261C10.2041 2.8642 9.61911 3.17208 9.61911 3.94791C9.61911 4.73606 10.2349 4.95773 10.789 5.15475V6.60173C10.1609 6.55247 9.99472 6.12145 9.79152 6.12145C9.63758 6.12145 9.5083 6.32466 9.5083 6.47245C9.5083 6.77414 10.0255 7.18669 10.789 7.19901V7.38989C10.789 7.46376 10.8629 7.5315 10.9676 7.5315C11.06 7.5315 11.1523 7.46376 11.1523 7.38989V7.18055C11.8174 7.08816 12.273 6.66947 12.273 5.91211C12.273 5.07473 11.688 4.80375 11.1523 4.60673ZM10.826 4.48978C10.4996 4.36664 10.2349 4.23736 10.2349 3.88641C10.2349 3.5662 10.4811 3.41226 10.826 3.36919V4.48978ZM11.1154 6.58941V5.29022C11.4171 5.4195 11.6572 5.59191 11.6572 5.9798C11.6572 6.33084 11.4478 6.52786 11.1154 6.58941Z" fill="#333333"/>
</svg>
