<svg width="24" height="24" viewBox="0 0 24 24" fill="none" xmlns="http://www.w3.org/2000/svg">
<path d="M12 22C17.5229 22 22 17.5229 22 12C22 6.47715 17.5229 2 12 2C6.47716 2 2 6.47715 2 12C2 17.5229 6.47716 22 12 22Z" stroke="#333333" stroke-width="0.75" stroke-miterlimit="10"/>
<path d="M8.86889 10.0537C8.63625 10.0537 8.44678 10.2432 8.44678 10.4758V10.958C8.44678 11.1894 8.63505 11.3801 8.86889 11.3801C9.10273 11.3801 9.291 11.1906 9.291 10.958V10.4758C9.291 10.2432 9.10273 10.0537 8.86889 10.0537Z" fill="#333333" stroke="#333333" stroke-width="0.5" stroke-miterlimit="10"/>
<path d="M15.1213 10.0537C14.8887 10.0537 14.6992 10.2432 14.6992 10.4758V10.958C14.6992 11.1894 14.8875 11.3801 15.1213 11.3801C15.3552 11.3801 15.5434 11.1906 15.5434 10.958V10.4758C15.5422 10.2432 15.354 10.0537 15.1213 10.0537Z" fill="#333333" stroke="#333333" stroke-width="0.5" stroke-miterlimit="10"/>
<path d="M7.77393 15.1335C7.77393 15.1335 11.7468 19.6113 16.2246 15.1335" stroke="#333333" stroke-width="0.75" stroke-miterlimit="10" stroke-linecap="round"/>
</svg>
