<svg width="24" height="24" viewBox="0 0 24 24" fill="none" xmlns="http://www.w3.org/2000/svg">
<path d="M20.677 3.3225C18.5345 1.17994 15.6858 0 12.6558 0C9.62578 0 6.7771 1.17994 4.63454 3.3225C2.49197 5.46506 1.31204 8.3137 1.31204 11.3438C1.31204 12.7177 1.55354 14.0538 2.03011 15.3236C1.60894 15.4667 1.21341 15.7057 0.87816 16.0409C-0.291418 17.2105 -0.291418 19.1136 0.87816 20.2832L4.45763 23.8627C4.54918 23.9542 4.66913 24 4.78908 24C4.90904 24 5.02904 23.9542 5.12054 23.8627L7.5218 21.4614C9.1028 22.2643 10.871 22.6875 12.6558 22.6875C15.6858 22.6875 18.5345 21.5076 20.677 19.365C22.8196 17.2224 23.9995 14.3738 23.9995 11.3438C23.9995 8.3137 22.8196 5.46506 20.677 3.3225ZM22.0427 15.8333L21.2468 15.0375C20.9606 14.7514 20.5801 14.5938 20.1754 14.5938H19.3804C19.0411 14.5938 18.7651 14.3178 18.7651 13.9785C18.7651 13.8821 18.7883 13.7857 18.832 13.6997L19.4927 12.4001C19.6301 12.1301 19.7026 11.8272 19.7026 11.5243C19.7026 10.7154 19.1921 9.98588 18.4321 9.7088C18.0706 9.57698 17.8276 9.22983 17.8276 8.84494C17.8276 8.54236 18.0052 8.265 18.2799 8.13825L21.8573 6.48811C22.6259 7.93861 23.062 9.59109 23.062 11.3438C23.062 12.9505 22.6958 14.4734 22.0427 15.8333ZM2.24954 11.3438C2.24954 9.30342 2.84021 7.3987 3.85889 5.79066V6.201C3.85889 7.07217 4.15421 7.93008 4.6905 8.61666C5.09864 9.13917 5.32341 9.79214 5.32341 10.4551V12.1463C5.32341 12.6015 5.50135 13.0286 5.82436 13.3489L5.84264 13.3671C5.9926 13.5157 6.06905 13.7137 6.05799 13.9244C6.04683 14.1375 5.94788 14.3295 5.77946 14.4646L5.73839 14.4976C5.38964 14.7776 5.14875 15.1575 5.04338 15.5853C4.95647 15.637 4.87144 15.693 4.78908 15.7544C4.25288 15.3553 3.61261 15.159 2.97375 15.1645C2.49343 13.9495 2.24954 12.666 2.24954 11.3438ZM4.78908 22.8683L1.54107 19.6203C0.736973 18.8162 0.736973 17.5079 1.54107 16.7038C1.94316 16.3017 2.47116 16.1007 2.99935 16.1007C3.52739 16.1007 4.05563 16.3018 4.45758 16.7038C4.64068 16.8868 4.93749 16.8868 5.12049 16.7038C5.92454 15.8997 7.23291 15.8996 8.03705 16.7038C8.42658 17.0933 8.64108 17.6112 8.64108 18.162C8.64108 18.7129 8.42658 19.2308 8.03705 19.6203L4.78908 22.8683ZM14.2964 21.6203V20.4856C14.2964 19.8905 14.7806 19.4063 15.3757 19.4063C15.6943 19.4063 16.0126 19.3295 16.296 19.1841L17.1214 18.7608C17.4183 18.6085 17.7624 18.6013 18.0655 18.741L19.3282 19.3227C17.9181 20.5037 16.1918 21.3188 14.2964 21.6203ZM20.0738 18.634L18.4578 17.8895C17.8915 17.6286 17.2484 17.6421 16.6936 17.9266L15.8683 18.3499C15.7166 18.4276 15.5462 18.4688 15.3758 18.4688C14.2637 18.4688 13.359 19.3735 13.359 20.4856V21.7258C13.1265 21.7414 12.8922 21.75 12.6558 21.75C11.1215 21.75 9.60113 21.4088 8.22296 20.7604L8.70005 20.2833C9.26663 19.7167 9.57868 18.9634 9.57868 18.1621C9.57868 18.137 9.57746 18.112 9.57685 18.087C9.86949 17.9801 10.181 17.9244 10.4923 17.9244C11.3244 17.9244 12.1366 17.6333 12.7792 17.1047L13.0828 16.855C14.0408 16.0669 14.5903 14.9034 14.5903 13.6629C14.5903 13.6393 14.5901 13.6158 14.5897 13.5923C14.5854 13.3335 14.3713 13.1251 14.1133 13.1313C13.8545 13.1355 13.6481 13.3488 13.6523 13.6076C13.6526 13.626 13.6528 13.6445 13.6528 13.6629C13.6528 14.622 13.2279 15.5216 12.4872 16.131L12.1837 16.3806C11.7084 16.7715 11.1077 16.9869 10.4923 16.9869C10.1247 16.9869 9.75704 17.0447 9.40627 17.1555C9.25904 16.741 9.02025 16.3611 8.70005 16.0409C8.0693 15.4101 7.22513 15.1196 6.39774 15.1692C6.75296 14.8695 6.97004 14.4363 6.99432 13.9735C7.01921 13.4995 6.84005 13.0358 6.50307 12.7016L6.48479 12.6834C6.3405 12.5403 6.26105 12.3496 6.26105 12.1464V10.4552C6.26105 9.58406 5.96574 8.72616 5.42944 8.03958C5.0213 7.51706 4.79654 6.86409 4.79654 6.20105V4.53042C6.5438 2.51756 9.04964 1.18008 11.8646 0.967406L13.4147 2.12039C13.6904 2.32547 13.855 2.65303 13.855 2.99662C13.855 3.59883 13.3651 4.08872 12.7629 4.08872H12.5213C11.938 4.08872 11.3838 4.34095 11.0007 4.78078C10.69 5.13755 10.2405 5.34216 9.76735 5.34216C9.51938 5.34216 9.28627 5.24559 9.11096 5.07023C8.61854 4.57786 7.83722 4.49564 7.25316 4.87481C6.82974 5.14964 6.57699 5.61506 6.57699 6.11991V7.06355C6.57699 7.61105 6.87661 8.11214 7.35896 8.37117L11.6274 10.664C11.698 10.7019 11.7739 10.7198 11.8488 10.7198C12.0159 10.7198 12.1776 10.6303 12.2622 10.4728C12.3847 10.2448 12.2991 9.96056 12.071 9.83803L7.80254 7.54523C7.62483 7.4498 7.51444 7.2652 7.51444 7.0635V6.11986C7.51444 5.93386 7.60754 5.76244 7.76354 5.66114C7.97874 5.5215 8.26655 5.55173 8.44796 5.73314C8.80036 6.08555 9.26893 6.27961 9.7673 6.27961C10.5116 6.27961 11.2188 5.95772 11.7076 5.39648C11.9126 5.16113 12.2091 5.02622 12.5212 5.02622H12.7628C13.8819 5.02622 14.7924 4.11577 14.7924 2.99662C14.7924 2.358 14.4865 1.74923 13.9741 1.36814L13.4342 0.966563C16.7595 1.21364 19.6542 3.03038 21.3791 5.67628L17.8873 7.28695C17.2816 7.56638 16.8902 8.17791 16.8902 8.84494C16.8902 9.62222 17.3808 10.3233 18.1111 10.5896C18.5023 10.7322 18.7652 11.1079 18.7652 11.5243C18.7652 11.6802 18.7278 11.8361 18.6571 11.9752L17.9963 13.2747C17.886 13.4917 17.8277 13.7351 17.8277 13.9785C17.8277 14.8347 18.5243 15.5313 19.3804 15.5313H20.1755C20.3298 15.5313 20.4749 15.5914 20.584 15.7005L21.5779 16.6944C21.1534 17.3994 20.6476 18.0502 20.0738 18.634Z" fill="#333333"/>
<path d="M13.479 11.1216C13.3557 11.1216 13.2348 11.1717 13.1476 11.2589C13.0599 11.3461 13.0103 11.467 13.0103 11.5903C13.0103 11.7136 13.0599 11.8345 13.1476 11.9217C13.2348 12.0089 13.3557 12.0591 13.479 12.0591C13.6023 12.0591 13.7232 12.0089 13.8104 11.9217C13.8976 11.8345 13.9478 11.7136 13.9478 11.5903C13.9478 11.467 13.8976 11.3461 13.8104 11.2589C13.7232 11.1717 13.6023 11.1216 13.479 11.1216Z" fill="#333333"/>
</svg>
