<svg width="24" height="24" viewBox="0 0 24 24" fill="none" xmlns="http://www.w3.org/2000/svg">
<g clip-path="url(#clip0)">
<path d="M22.2286 11.6754C21.5122 10.3659 20.8 9.51977 20.5434 9.23331V7.30067L23.8717 4.5678C23.9509 4.50269 23.9978 4.40626 24 4.30369C24.0023 4.20113 23.9596 4.10273 23.8832 4.03429L21.365 1.77717C21.2204 1.64761 20.9981 1.65979 20.8685 1.80431C20.7389 1.94888 20.7511 2.17117 20.8957 2.30079L23.1088 4.28443L20.5436 6.39074V4.95294C20.5436 4.75877 20.3862 4.60136 20.192 4.60136C19.9978 4.60136 19.8404 4.75877 19.8404 4.95294L19.8402 9.07327C17.3299 9.47955 14.7893 9.47951 12.279 9.07318V4.95294C12.279 4.75877 12.1216 4.60136 11.9274 4.60136C11.7332 4.60136 11.5759 4.75877 11.5759 4.95294V6.39088L9.01048 4.28443L11.7473 1.83103C12.1499 1.46999 12.6699 1.31994 13.1702 1.37938C13.2733 1.82199 13.5099 2.75038 13.8733 3.67526C14.4704 5.19506 15.1669 6.10362 15.9434 6.37565C15.981 6.38882 16.0203 6.39543 16.0596 6.39543C16.0989 6.39543 16.1382 6.38882 16.1758 6.37565C16.9523 6.10362 17.6488 5.19506 18.2461 3.67531C18.6088 2.75216 18.8452 1.82621 18.9486 1.38252C19.2584 1.34548 19.5783 1.38692 19.8757 1.51424C20.0543 1.5907 20.2609 1.50787 20.3373 1.32941C20.4137 1.1509 20.3309 0.944266 20.1525 0.867856C19.2493 0.481169 18.1964 0.658786 17.4697 1.32017L17.1453 1.6155C16.5263 2.17914 15.5931 2.17914 14.9743 1.6155L14.6499 1.32017C13.692 0.448074 12.2423 0.442683 11.2779 1.30756L8.23598 4.03439C8.15957 4.10283 8.11691 4.20127 8.11916 4.30379C8.12136 4.40635 8.16829 4.50278 8.24751 4.56789L11.5758 7.30076V9.23312C11.3453 9.48963 10.7529 10.1901 10.1216 11.2642C9.58692 10.9793 9.02145 10.698 8.44866 10.4132C7.94811 10.1643 7.44395 9.91363 6.95999 9.65904C7.43298 9.06676 7.79782 8.39632 7.95772 7.61034C8.20204 6.40921 7.84465 5.3363 6.97719 4.66666C6.15483 4.03186 5.02234 3.89033 4.15901 4.31452C3.69624 4.54188 2.91991 5.13196 2.91991 6.52908C2.91991 7.41346 3.48154 8.24951 4.63701 9.08504C4.99843 9.34638 5.40476 9.59951 5.83724 9.8465C5.30107 10.3739 4.68571 10.8433 4.10439 11.2867C2.85283 12.2413 1.66539 13.1477 1.63469 14.3689C0.869003 14.5525 0.278214 15.191 0.175366 15.9952C-0.0584554 17.8263 -0.0584554 19.683 0.175366 21.5141C0.293496 22.4374 1.05501 23.143 1.98617 23.1918C3.85318 23.2891 5.73332 23.3378 7.6135 23.3378C9.49364 23.3378 11.3739 23.2891 13.241 23.1918C14.1724 23.1429 14.9336 22.4373 15.0512 21.5141C15.1212 20.9667 15.1699 20.4169 15.198 19.8663C15.4841 19.8749 15.7725 19.8795 16.0596 19.8795C20.6493 19.8795 23.6438 18.8056 23.769 18.7599C23.9077 18.7092 24 18.5773 24 18.4296C24.0001 15.5231 23.0368 13.1524 22.2286 11.6754ZM14.501 2.13517C15.3894 2.94469 16.7298 2.94469 17.6188 2.13527L17.9432 1.83999C18.0091 1.77999 18.0788 1.72556 18.1515 1.67672C18.0294 2.14248 17.8421 2.78118 17.5918 3.418C17.0057 4.9093 16.4524 5.46811 16.0597 5.6627C15.6671 5.46811 15.1137 4.9093 14.5278 3.418C14.2776 2.78109 14.0902 2.14197 13.9681 1.67601C14.0405 1.72491 14.1103 1.77947 14.1767 1.83994L14.501 2.13517ZM3.62325 6.52889C3.62325 5.76489 3.91576 5.21732 4.46924 4.94539C4.70072 4.83167 4.96524 4.77649 5.2375 4.77649C5.69249 4.77649 6.16894 4.93067 6.54771 5.22304C6.92802 5.51658 7.52739 6.19888 7.26886 7.46994C7.12715 8.16672 6.78045 8.77288 6.328 9.31633C4.80849 8.46481 3.62325 7.56079 3.62325 6.52889ZM2.02283 15.02C2.64953 14.9875 3.27646 14.9603 3.88623 14.9392C4.0803 14.9325 4.23213 14.7697 4.22538 14.5757C4.21863 14.3816 4.05714 14.2303 3.86185 14.2365C3.36458 14.2537 2.85592 14.2751 2.34534 14.2999C2.43591 13.4443 3.41516 12.6966 4.53097 11.8456C5.18645 11.3456 5.88229 10.8149 6.48039 10.2003C7.01915 10.4874 7.58167 10.7672 8.13571 11.0427C8.69026 11.3184 9.24932 11.5965 9.77954 11.8794C9.43124 12.5411 9.08871 13.3112 8.8052 14.1788C7.6225 14.1656 6.44177 14.1708 5.26985 14.1965C5.07568 14.2008 4.92179 14.3615 4.92605 14.5557C4.93032 14.7499 5.09031 14.9054 5.28522 14.8995C7.90611 14.8419 10.5705 14.8825 13.2045 15.02C13.7959 15.0507 14.2793 15.4982 14.3539 16.0842C14.4033 16.4701 14.4413 16.8571 14.4691 17.2448C14.4407 17.6339 14.4021 18.0202 14.3539 18.3939C14.2793 18.9795 13.7958 19.4267 13.2039 19.4574C12.4079 19.499 11.6082 19.5314 10.8197 19.5551C10.8366 19.0586 10.8257 18.5601 10.7859 18.0664C10.7321 17.3987 10.1905 16.8677 9.52603 16.8314C8.38838 16.7691 7.23474 16.7691 6.09736 16.8314C5.43288 16.8677 4.89127 17.3987 4.83745 18.0664C4.79738 18.5638 4.78655 19.0662 4.80398 19.5665C3.87812 19.5418 2.94471 19.5057 2.02283 19.4574C1.43115 19.4268 0.947568 18.9795 0.873034 18.3937C0.825876 18.0245 0.787203 17.6395 0.757764 17.2491C0.785609 16.8599 0.823579 16.4715 0.873034 16.0842C0.947943 15.4983 1.43152 15.0507 2.02283 15.02ZM10.3983 12.2204C11.5372 12.8722 12.4575 13.554 12.7668 14.2953C11.6949 14.2441 10.619 14.2086 9.54347 14.1894C9.79693 13.4554 10.0952 12.7955 10.3983 12.2204ZM10.085 20.0993C10.0593 20.4181 9.80246 20.6715 9.48759 20.6887C9.48754 20.6887 9.48754 20.6887 9.48754 20.6887C8.37548 20.7496 7.24786 20.7496 6.13571 20.6887C5.82084 20.6715 5.564 20.4181 5.53831 20.0993C5.48548 19.4436 5.48548 18.7786 5.53831 18.1229C5.564 17.8041 5.82084 17.5507 6.13576 17.5335C6.69176 17.503 7.25171 17.4878 7.81165 17.4878C8.37159 17.4878 8.93154 17.503 9.48759 17.5335C9.80246 17.5507 10.0593 17.8041 10.085 18.1229C10.1378 18.7786 10.1378 19.4436 10.085 20.0993ZM13.2044 22.4894C9.49462 22.6828 5.73271 22.6828 2.02306 22.4894C1.43167 22.4584 0.947943 22.0107 0.873034 21.4248C0.7955 20.8176 0.745154 20.2074 0.720778 19.5963C1.04826 19.9246 1.49345 20.1341 1.98627 20.1596C2.93604 20.2094 3.89823 20.2464 4.85194 20.2712C4.95502 20.8837 5.47165 21.3566 6.09732 21.3909C6.66612 21.422 7.23891 21.4376 7.81165 21.4376C8.38439 21.4376 8.95723 21.422 9.52594 21.3909C10.1554 21.3564 10.6744 20.8779 10.773 20.26C11.5885 20.236 12.4165 20.2027 13.2404 20.1596C13.7335 20.1341 14.1789 19.9245 14.5064 19.5961C14.482 20.2073 14.4315 20.8176 14.3539 21.425C14.2792 22.0108 13.7958 22.4584 13.2044 22.4894ZM22.1431 18.4911C22.0708 17.4341 21.9371 16.381 21.7445 15.3547C21.7087 15.1639 21.5251 15.0383 21.3341 15.0741C21.1432 15.1099 21.0176 15.2936 21.0534 15.4845C21.2474 16.5182 21.3795 17.58 21.4481 18.6451C21.1774 18.7005 20.8705 18.7581 20.5307 18.8142C20.4882 17.4003 20.3373 15.9924 20.0805 14.6233C20.0447 14.4325 19.861 14.3069 19.6702 14.3426C19.4793 14.3784 19.3537 14.5621 19.3895 14.753C19.6446 16.1137 19.7927 17.5139 19.8305 18.9199C18.7822 19.0638 17.502 19.1762 16.0596 19.1762C15.7808 19.1762 15.5006 19.1718 15.2227 19.1635C15.2426 18.1054 15.1857 17.0461 15.0513 15.9953C14.9459 15.1674 14.3231 14.5153 13.5245 14.3541C13.2664 13.2798 12.1634 12.4168 10.7417 11.6054C11.3036 10.6543 11.8293 10.0128 12.0589 9.74956C13.3868 9.97054 14.7233 10.0814 16.0598 10.0814C17.3962 10.0814 18.7326 9.97059 20.0605 9.74961C20.3243 10.0513 20.9774 10.849 21.6232 12.0341C22.3632 13.3919 23.2409 15.5441 23.2943 18.1768C23.0657 18.2489 22.6736 18.3644 22.1431 18.4911Z" fill="#333333"/>
<path d="M9.22227 18.0667C8.75266 18.0447 8.27803 18.0336 7.81147 18.0336C7.34486 18.0336 6.87018 18.0447 6.40057 18.0667C6.22122 18.0751 6.07702 18.2173 6.06606 18.3965C6.03723 18.8706 6.03723 19.3515 6.06606 19.8257C6.07698 20.0049 6.22122 20.1471 6.40057 20.1555C6.86981 20.1774 7.34453 20.1886 7.81147 20.1886C8.27836 20.1886 8.75304 20.1775 9.22227 20.1555C9.40162 20.1471 9.54582 20.0049 9.55679 19.8257C9.58562 19.3515 9.58562 18.8707 9.55679 18.3965C9.54586 18.2173 9.40167 18.0751 9.22227 18.0667ZM8.86962 19.4664C8.16295 19.4917 7.45989 19.4917 6.75332 19.4664C6.74577 19.2299 6.74577 18.9924 6.75332 18.7559C7.46036 18.7305 8.16258 18.7305 8.86962 18.7559C8.87717 18.9924 8.87717 19.2299 8.86962 19.4664Z" fill="#333333"/>
</g>
<defs>
<clipPath id="clip0">
<rect width="24" height="24" fill="white"/>
</clipPath>
</defs>
</svg>
