<svg width="24" height="24" viewBox="0 0 24 24" fill="none" xmlns="http://www.w3.org/2000/svg">
<path d="M7.78395 8.71073C7.64555 8.58773 7.44301 8.61076 7.33028 8.76176C7.20013 8.93776 7.02783 9.03275 6.84453 9.03275C6.66122 9.03275 6.48891 8.93676 6.35877 8.76176C6.24695 8.61176 6.04349 8.58773 5.9051 8.71073C5.76762 8.83273 5.74562 9.05475 5.85835 9.20475C6.10948 9.54275 6.46967 9.73575 6.84453 9.73575C7.2203 9.73575 7.57957 9.54275 7.83161 9.20475C7.94342 9.05475 7.92234 8.83273 7.78395 8.71073Z" fill="#333333"/>
<path d="M7.78395 8.71073C7.64555 8.58773 7.44301 8.61076 7.33028 8.76176C7.20013 8.93776 7.02783 9.03275 6.84453 9.03275C6.66122 9.03275 6.48891 8.93676 6.35877 8.76176C6.24695 8.61176 6.04349 8.58773 5.9051 8.71073C5.76762 8.83273 5.74562 9.05475 5.85835 9.20475C6.10948 9.54275 6.46967 9.73575 6.84453 9.73575C7.2203 9.73575 7.57957 9.54275 7.83161 9.20475C7.94342 9.05475 7.92234 8.83273 7.78395 8.71073Z" fill="#333333"/>
<path d="M5.3729 6.62329C5.1951 6.62329 5.05029 6.78128 5.05029 6.97528V7.37726C5.05029 7.57026 5.19418 7.72931 5.3729 7.72931C5.55162 7.72931 5.69551 7.57126 5.69551 7.37726V6.97528C5.6946 6.78128 5.55071 6.62329 5.3729 6.62329Z" fill="#333333"/>
<path d="M5.3729 6.62329C5.1951 6.62329 5.05029 6.78128 5.05029 6.97528V7.37726C5.05029 7.57026 5.19418 7.72931 5.3729 7.72931C5.55162 7.72931 5.69551 7.57126 5.69551 7.37726V6.97528C5.6946 6.78128 5.55071 6.62329 5.3729 6.62329Z" fill="#333333"/>
<path d="M8.31724 6.62329C8.13944 6.62329 7.99463 6.78128 7.99463 6.97528V7.37726C7.99463 7.57026 8.13852 7.72931 8.31724 7.72931C8.49596 7.72931 8.63986 7.57126 8.63986 7.37726V6.97528C8.63894 6.78128 8.49504 6.62329 8.31724 6.62329Z" fill="#333333"/>
<path d="M8.31724 6.62329C8.13944 6.62329 7.99463 6.78128 7.99463 6.97528V7.37726C7.99463 7.57026 8.13852 7.72931 8.31724 7.72931C8.49596 7.72931 8.63986 7.57126 8.63986 7.37726V6.97528C8.63894 6.78128 8.49504 6.62329 8.31724 6.62329Z" fill="#333333"/>
<path d="M18.4598 10.7192C18.3223 10.5972 18.1188 10.6192 18.007 10.7712C17.8769 10.9462 17.7036 11.0422 17.5213 11.0422C17.338 11.0422 17.1657 10.9452 17.0355 10.7712C16.9228 10.6202 16.7202 10.5972 16.5818 10.7192C16.4434 10.8412 16.4224 11.0632 16.5342 11.2132C16.7853 11.5512 17.1455 11.7452 17.5213 11.7452C17.897 11.7452 18.2563 11.5512 18.5074 11.2132C18.6202 11.0632 18.5982 10.8412 18.4598 10.7192Z" fill="#333333"/>
<path d="M18.4598 10.7192C18.3223 10.5972 18.1188 10.6192 18.007 10.7712C17.8769 10.9462 17.7036 11.0422 17.5213 11.0422C17.338 11.0422 17.1657 10.9452 17.0355 10.7712C16.9228 10.6202 16.7202 10.5972 16.5818 10.7192C16.4434 10.8412 16.4224 11.0632 16.5342 11.2132C16.7853 11.5512 17.1455 11.7452 17.5213 11.7452C17.897 11.7452 18.2563 11.5512 18.5074 11.2132C18.6202 11.0632 18.5982 10.8412 18.4598 10.7192Z" fill="#333333"/>
<path d="M16.0482 8.63174C15.8704 8.63174 15.7256 8.78873 15.7256 8.98373V9.38474C15.7256 9.57874 15.8695 9.73672 16.0482 9.73672C16.2269 9.73672 16.3708 9.57974 16.3708 9.38474V8.98373C16.3708 8.78973 16.226 8.63174 16.0482 8.63174Z" fill="#333333"/>
<path d="M16.0482 8.63174C15.8704 8.63174 15.7256 8.78873 15.7256 8.98373V9.38474C15.7256 9.57874 15.8695 9.73672 16.0482 9.73672C16.2269 9.73672 16.3708 9.57974 16.3708 9.38474V8.98373C16.3708 8.78973 16.226 8.63174 16.0482 8.63174Z" fill="#333333"/>
<path d="M18.993 8.63174C18.8152 8.63174 18.6704 8.78873 18.6704 8.98373V9.38474C18.6704 9.57874 18.8143 9.73672 18.993 9.73672C19.1717 9.73672 19.3156 9.57974 19.3156 9.38474V8.98373C19.3156 8.78973 19.1717 8.63174 18.993 8.63174Z" fill="#333333"/>
<path d="M18.993 8.63174C18.8152 8.63174 18.6704 8.78873 18.6704 8.98373V9.38474C18.6704 9.57874 18.8143 9.73672 18.993 9.73672C19.1717 9.73672 19.3156 9.57974 19.3156 9.38474V8.98373C19.3156 8.78973 19.1717 8.63174 18.993 8.63174Z" fill="#333333"/>
<path d="M22.1 15.5854L19.5759 14.483C19.5621 14.477 19.5493 14.469 19.5365 14.462C21.2797 14.0289 22.1055 13.3048 22.1421 13.2728C22.2292 13.1948 22.2732 13.0728 22.2567 12.9518C22.253 12.9237 21.8919 10.1321 21.8919 7.37645C21.8919 4.74485 19.9306 2.60535 17.5202 2.60535C15.1097 2.60535 13.1484 4.74485 13.1484 7.37645C13.1484 8.09761 13.1181 8.97883 13.0696 9.81402L12.3657 10.1981L10.3008 9.07087C10.2953 9.06787 10.2889 9.06587 10.2825 9.06287C10.3805 8.7498 10.4447 8.42069 10.4685 8.07961C10.9002 7.93358 11.2145 7.49448 11.2145 6.97536C11.2145 6.62628 11.0716 6.31318 10.847 6.10114V3.76161C10.847 3.11547 10.5473 2.51038 10.057 2.14729C9.8911 1.47314 9.33569 1 8.68405 1H5.7393C4.1409 1 2.84036 2.42032 2.84036 4.16472V6.10217C2.6149 6.31422 2.47192 6.62726 2.47192 6.97634C2.47192 7.49645 2.78721 7.93556 3.21888 8.08059C3.29954 9.26186 3.8577 10.2991 4.68072 10.9663V11.9385L2.01641 12.8107C1.40785 13.0097 1 13.6089 1 14.302V18.2269C1 18.42 1.1439 18.579 1.32262 18.579H1.36844V22.6459C1.36844 22.839 1.51234 22.998 1.69106 22.998C1.86886 22.998 2.01367 22.84 2.01367 22.6459V18.579H3.20972V22.6459C3.20972 22.839 3.35361 22.998 3.53233 22.998C3.71013 22.998 3.85495 22.84 3.85495 22.6459V16.5815C3.85495 16.2725 3.77246 15.9754 3.61482 15.7184L3.06399 14.8172C2.96501 14.6561 2.76521 14.6121 2.61673 14.7191C2.46825 14.8271 2.42884 15.0452 2.52783 15.2062L3.07866 16.1084C3.16481 16.2494 3.21063 16.4125 3.21063 16.5815V17.8749H1.69197H1.64614V14.302C1.64614 13.922 1.87069 13.5929 2.20339 13.4839L3.30962 13.1228C3.69455 14.8832 5.15823 16.1684 6.84553 16.1684C7.45226 16.1684 8.04158 16.0044 8.56857 15.6933C8.76104 15.9804 9.07265 16.1684 9.42276 16.1684H9.46859V16.2185C9.46859 17.3978 10.0625 18.4269 10.9414 18.9711V19.5442C10.9414 19.5652 10.9286 19.5852 10.9103 19.5922L9.7078 20.0294C9.12398 20.2424 8.73263 20.8365 8.73263 21.5067V22.6479C8.73263 22.841 8.87652 23 9.05524 23C9.23396 23 9.37786 22.842 9.37786 22.6479V21.5067C9.37786 21.1396 9.59232 20.8135 9.91218 20.6975L10.266 20.5685C10.7334 21.3297 11.5197 21.7937 12.3684 21.7937C13.218 21.7937 14.0035 21.3307 14.4709 20.5685L14.8238 20.6975C15.1436 20.8125 15.3581 21.1386 15.3581 21.5067V22.6479C15.3581 22.841 15.5029 23 15.6807 23C15.8585 23 16.0033 22.842 16.0033 22.6479V21.5067C16.0033 20.8365 15.6111 20.2424 15.0282 20.0294L13.8266 19.5922C13.8074 19.5852 13.7945 19.5662 13.7945 19.5442V18.9711C14.4526 18.564 14.9503 17.8838 15.1592 17.0737C15.7678 17.7688 16.6183 18.1779 17.522 18.1779C18.949 18.1779 20.201 17.1717 20.6326 15.7054L21.8626 16.2425C22.1614 16.3725 22.3548 16.6836 22.3548 17.0347V18.68H22.309H21.1587V18.2289C21.1587 18.0339 21.0139 17.8768 20.8361 17.8768C20.6583 17.8768 20.5135 18.0329 20.5135 18.2289V22.6479C20.5135 22.841 20.6574 23 20.8361 23C21.0139 23 21.1587 22.842 21.1587 22.6479V19.3832H21.9863V22.6479C21.9863 22.841 22.1311 23 22.309 23C22.4868 23 22.6316 22.842 22.6316 22.6479V19.3832H22.6774C22.7626 19.3832 22.8451 19.3462 22.9056 19.2792C22.9661 19.2142 23 19.1251 23 19.0311V17.0347C22.9972 16.3905 22.6453 15.8244 22.1 15.5854ZM13.7936 7.37645C13.7936 5.13394 15.4653 3.30955 17.5211 3.30955C19.5759 3.30955 21.2476 5.13394 21.2476 7.37645C21.2476 9.73799 21.5088 12.1246 21.5931 12.8377C21.3044 13.0438 20.5648 13.4979 19.3156 13.7959V13.2368C19.487 13.1308 19.6511 13.0098 19.805 12.8737C20.4393 12.3146 20.8874 11.5314 21.0662 10.6682C21.1257 10.3812 21.156 10.0841 21.156 9.78703C21.156 7.79958 19.8389 7.5145 18.565 7.23744C17.7548 7.0614 16.9162 6.88134 16.249 6.2982C16.1527 6.21418 16.0198 6.19719 15.908 6.2562C15.7962 6.31521 15.7256 6.43826 15.7256 6.57329C15.7256 6.58229 15.7119 7.50749 14.4975 7.83957C14.3252 7.88658 14.2198 8.07659 14.2629 8.26563C14.3059 8.45467 14.481 8.56874 14.6533 8.52173C15.6697 8.24467 16.0849 7.62252 16.2535 7.15442C16.9519 7.60652 17.7346 7.77557 18.4394 7.9276C19.8005 8.22267 20.5107 8.43973 20.5107 9.78703C20.5107 10.0321 20.486 10.2761 20.4365 10.5132C20.289 11.2233 19.9205 11.8675 19.3981 12.3266C18.861 12.8017 18.2112 13.0518 17.5193 13.0518C16.8887 13.0518 16.2875 12.8407 15.7788 12.4416C15.5918 11.8855 15.2921 11.3774 14.8971 10.9583V9.38594C14.8971 9.26491 14.8394 9.15188 14.744 9.08686C14.6487 9.02385 14.5305 9.01785 14.4306 9.07087L13.735 9.45096C13.7744 8.71879 13.7936 8.0216 13.7936 7.37645ZM14.2528 9.95504V11.2273L13.0879 10.5902L14.2528 9.95504ZM10.4804 9.95504L11.6462 10.5912L10.4804 11.2283V9.95504ZM8.73171 13.8049V14.139C8.50167 14.357 8.36327 14.6741 8.36327 15.0102C7.90502 15.3063 7.38352 15.4623 6.84461 15.4623C5.44326 15.4623 4.23071 14.386 3.92735 12.9167L4.7238 12.6566C4.91993 13.7389 5.79612 14.5571 6.84461 14.5571C7.67772 14.5571 8.40177 14.041 8.76287 13.2858C8.74179 13.4589 8.73171 13.6299 8.73171 13.8049ZM5.32595 12.1976V11.3833C5.78787 11.6164 6.30295 11.7465 6.84461 11.7465C7.38627 11.7465 7.90044 11.6164 8.36327 11.3833V12.1985C8.36327 13.1117 7.68139 13.8549 6.84461 13.8549C6.00875 13.8549 5.3287 13.1148 5.32595 12.2026C5.32595 12.2006 5.32595 12.1996 5.32595 12.1976ZM6.84461 11.0423C5.19581 11.0423 3.85403 9.57795 3.85403 7.77754C3.85403 7.5835 3.70922 7.42547 3.53141 7.42547C3.3032 7.42547 3.11715 7.2234 3.11715 6.97334C3.11715 6.72529 3.3032 6.52225 3.53141 6.52225H4.26737C4.40577 6.52225 4.5295 6.42524 4.57257 6.28221L4.8686 5.31299C5.60915 5.29499 7.90501 5.18196 9.1973 4.4768C9.35677 4.38878 9.42093 4.17771 9.3412 4.00367C9.26146 3.82963 9.06808 3.75961 8.9086 3.84763C7.52192 4.6038 4.66422 4.6138 4.6349 4.6138C4.4965 4.6138 4.37277 4.71087 4.3297 4.8539L4.03458 5.81909H3.5305C3.51491 5.81909 3.49934 5.8191 3.48467 5.8211V4.16271C3.48467 2.8054 4.4965 1.70115 5.7393 1.70115H8.68405C9.06807 1.70115 9.3916 2.00425 9.45209 2.42134C9.46767 2.52737 9.52633 2.61937 9.61248 2.67238C9.97634 2.89643 10.2027 3.31354 10.2027 3.76064V5.8211C10.1871 5.8201 10.1725 5.82013 10.1569 5.82013H9.78845C9.61065 5.82013 9.46584 5.97715 9.46584 6.1722C9.46584 6.36524 9.61065 6.52427 9.78845 6.52427H10.1569C10.3851 6.52427 10.5712 6.7273 10.5712 6.97536C10.5712 7.22542 10.3851 7.42749 10.1569 7.42749C9.97909 7.42749 9.83428 7.58451 9.83428 7.77956C9.83611 9.57897 8.49434 11.0423 6.84461 11.0423ZM9.00758 12.1985V10.9653C9.32836 10.7042 9.60882 10.3902 9.83611 10.0301V10.9583C9.47501 11.3403 9.19363 11.7965 9.00575 12.2966C9.00666 12.2626 9.00758 12.2305 9.00758 12.1985ZM13.8266 20.3314C13.4719 20.8045 12.9385 21.0876 12.3666 21.0876C11.7947 21.0876 11.2613 20.8045 10.9066 20.3314L11.1119 20.2574C11.3942 20.1543 11.5839 19.8673 11.5839 19.5422V19.2621C11.8323 19.3392 12.0953 19.3802 12.3666 19.3802C12.637 19.3802 12.9 19.3392 13.1493 19.2621V19.5422C13.1493 19.8663 13.339 20.1543 13.6213 20.2574L13.8266 20.3314ZM14.9438 15.4623C14.766 15.4623 14.6212 15.6184 14.6212 15.8144V16.1645C14.6212 16.1665 14.6212 16.1704 14.6212 16.1734V16.2165C14.6212 17.5728 13.6094 18.6771 12.3666 18.6771C11.1238 18.6771 10.112 17.5728 10.112 16.2165V15.8154C10.112 15.6203 9.96809 15.4633 9.78937 15.4633H9.42185C9.19363 15.4633 9.00758 15.2602 9.00758 15.0112C9.00758 14.8501 9.08457 14.7051 9.21563 14.6231C9.24496 14.6031 9.27062 14.5801 9.2917 14.5551C10.0882 14.5301 12.67 14.366 14.3674 13.3078C14.5213 13.2108 14.5754 12.9957 14.4874 12.8287C14.3994 12.6596 14.2024 12.6006 14.0484 12.6977C12.5618 13.6239 10.2256 13.8099 9.37602 13.8469V13.8059C9.37602 13.1527 9.55749 12.5186 9.88652 11.9845C9.91219 12.0295 9.9461 12.0675 9.98917 12.0955C10.0405 12.1306 10.0992 12.1485 10.1587 12.1485C10.2082 12.1485 10.2568 12.1365 10.3026 12.1115L12.3675 10.9853L14.4324 12.1115C14.4773 12.1365 14.5277 12.1485 14.5763 12.1485C14.635 12.1485 14.6936 12.1306 14.7459 12.0955C14.788 12.0675 14.8229 12.0295 14.8485 11.9845C15.1776 12.5186 15.359 13.1527 15.359 13.8059V14.319C15.359 14.444 15.4204 14.5601 15.5194 14.6241C15.6496 14.7062 15.7275 14.8512 15.7275 15.0122C15.7275 15.2613 15.5414 15.4643 15.3132 15.4643H14.9438V15.4623ZM17.5211 17.4707C16.6284 17.4707 15.8017 16.9746 15.3196 16.1645C15.8998 16.1605 16.3709 15.6434 16.3709 15.0102C16.3709 14.6741 16.2334 14.357 16.0024 14.139V13.8049C16.0024 13.6629 15.996 13.5229 15.9823 13.3828C16.4598 13.6279 16.9812 13.7549 17.522 13.7549C17.9152 13.7549 18.3038 13.6839 18.6722 13.5499V14.064C18.6722 14.5401 18.9334 14.9602 19.3376 15.1362L20.0323 15.4403C19.6978 16.6416 18.6814 17.4707 17.5211 17.4707Z" fill="#333333"/>
<path d="M22.1 15.5854L19.5759 14.483C19.5621 14.477 19.5493 14.469 19.5365 14.462C21.2797 14.0289 22.1055 13.3048 22.1421 13.2728C22.2292 13.1948 22.2732 13.0728 22.2567 12.9518C22.253 12.9237 21.8919 10.1321 21.8919 7.37645C21.8919 4.74485 19.9306 2.60535 17.5202 2.60535C15.1097 2.60535 13.1484 4.74485 13.1484 7.37645C13.1484 8.09761 13.1181 8.97883 13.0696 9.81402L12.3657 10.1981L10.3008 9.07087C10.2953 9.06787 10.2889 9.06587 10.2825 9.06287C10.3805 8.7498 10.4447 8.42069 10.4685 8.07961C10.9002 7.93358 11.2145 7.49448 11.2145 6.97536C11.2145 6.62628 11.0716 6.31318 10.847 6.10114V3.76161C10.847 3.11547 10.5473 2.51038 10.057 2.14729C9.8911 1.47314 9.33569 1 8.68405 1H5.7393C4.1409 1 2.84036 2.42032 2.84036 4.16472V6.10217C2.6149 6.31422 2.47192 6.62726 2.47192 6.97634C2.47192 7.49645 2.78721 7.93556 3.21888 8.08059C3.29954 9.26186 3.8577 10.2991 4.68072 10.9663V11.9385L2.01641 12.8107C1.40785 13.0097 1 13.6089 1 14.302V18.2269C1 18.42 1.1439 18.579 1.32262 18.579H1.36844V22.6459C1.36844 22.839 1.51234 22.998 1.69106 22.998C1.86886 22.998 2.01367 22.84 2.01367 22.6459V18.579H3.20972V22.6459C3.20972 22.839 3.35361 22.998 3.53233 22.998C3.71013 22.998 3.85495 22.84 3.85495 22.6459V16.5815C3.85495 16.2725 3.77246 15.9754 3.61482 15.7184L3.06399 14.8172C2.96501 14.6561 2.76521 14.6121 2.61673 14.7191C2.46825 14.8271 2.42884 15.0452 2.52783 15.2062L3.07866 16.1084C3.16481 16.2494 3.21063 16.4125 3.21063 16.5815V17.8749H1.69197H1.64614V14.302C1.64614 13.922 1.87069 13.5929 2.20339 13.4839L3.30962 13.1228C3.69455 14.8832 5.15823 16.1684 6.84553 16.1684C7.45226 16.1684 8.04158 16.0044 8.56857 15.6933C8.76104 15.9804 9.07265 16.1684 9.42276 16.1684H9.46859V16.2185C9.46859 17.3978 10.0625 18.4269 10.9414 18.9711V19.5442C10.9414 19.5652 10.9286 19.5852 10.9103 19.5922L9.7078 20.0294C9.12398 20.2424 8.73263 20.8365 8.73263 21.5067V22.6479C8.73263 22.841 8.87652 23 9.05524 23C9.23396 23 9.37786 22.842 9.37786 22.6479V21.5067C9.37786 21.1396 9.59232 20.8135 9.91218 20.6975L10.266 20.5685C10.7334 21.3297 11.5197 21.7937 12.3684 21.7937C13.218 21.7937 14.0035 21.3307 14.4709 20.5685L14.8238 20.6975C15.1436 20.8125 15.3581 21.1386 15.3581 21.5067V22.6479C15.3581 22.841 15.5029 23 15.6807 23C15.8585 23 16.0033 22.842 16.0033 22.6479V21.5067C16.0033 20.8365 15.6111 20.2424 15.0282 20.0294L13.8266 19.5922C13.8074 19.5852 13.7945 19.5662 13.7945 19.5442V18.9711C14.4526 18.564 14.9503 17.8838 15.1592 17.0737C15.7678 17.7688 16.6183 18.1779 17.522 18.1779C18.949 18.1779 20.201 17.1717 20.6326 15.7054L21.8626 16.2425C22.1614 16.3725 22.3548 16.6836 22.3548 17.0347V18.68H22.309H21.1587V18.2289C21.1587 18.0339 21.0139 17.8768 20.8361 17.8768C20.6583 17.8768 20.5135 18.0329 20.5135 18.2289V22.6479C20.5135 22.841 20.6574 23 20.8361 23C21.0139 23 21.1587 22.842 21.1587 22.6479V19.3832H21.9863V22.6479C21.9863 22.841 22.1311 23 22.309 23C22.4868 23 22.6316 22.842 22.6316 22.6479V19.3832H22.6774C22.7626 19.3832 22.8451 19.3462 22.9056 19.2792C22.9661 19.2142 23 19.1251 23 19.0311V17.0347C22.9972 16.3905 22.6453 15.8244 22.1 15.5854ZM13.7936 7.37645C13.7936 5.13394 15.4653 3.30955 17.5211 3.30955C19.5759 3.30955 21.2476 5.13394 21.2476 7.37645C21.2476 9.73799 21.5088 12.1246 21.5931 12.8377C21.3044 13.0438 20.5648 13.4979 19.3156 13.7959V13.2368C19.487 13.1308 19.6511 13.0098 19.805 12.8737C20.4393 12.3146 20.8874 11.5314 21.0662 10.6682C21.1257 10.3812 21.156 10.0841 21.156 9.78703C21.156 7.79958 19.8389 7.5145 18.565 7.23744C17.7548 7.0614 16.9162 6.88134 16.249 6.2982C16.1527 6.21418 16.0198 6.19719 15.908 6.2562C15.7962 6.31521 15.7256 6.43826 15.7256 6.57329C15.7256 6.58229 15.7119 7.50749 14.4975 7.83957C14.3252 7.88658 14.2198 8.07659 14.2629 8.26563C14.3059 8.45467 14.481 8.56874 14.6533 8.52173C15.6697 8.24467 16.0849 7.62252 16.2535 7.15442C16.9519 7.60652 17.7346 7.77557 18.4394 7.9276C19.8005 8.22267 20.5107 8.43973 20.5107 9.78703C20.5107 10.0321 20.486 10.2761 20.4365 10.5132C20.289 11.2233 19.9205 11.8675 19.3981 12.3266C18.861 12.8017 18.2112 13.0518 17.5193 13.0518C16.8887 13.0518 16.2875 12.8407 15.7788 12.4416C15.5918 11.8855 15.2921 11.3774 14.8971 10.9583V9.38594C14.8971 9.26491 14.8394 9.15188 14.744 9.08686C14.6487 9.02385 14.5305 9.01785 14.4306 9.07087L13.735 9.45096C13.7744 8.71879 13.7936 8.0216 13.7936 7.37645ZM14.2528 9.95504V11.2273L13.0879 10.5902L14.2528 9.95504ZM10.4804 9.95504L11.6462 10.5912L10.4804 11.2283V9.95504ZM8.73171 13.8049V14.139C8.50167 14.357 8.36327 14.6741 8.36327 15.0102C7.90502 15.3063 7.38352 15.4623 6.84461 15.4623C5.44326 15.4623 4.23071 14.386 3.92735 12.9167L4.7238 12.6566C4.91993 13.7389 5.79612 14.5571 6.84461 14.5571C7.67772 14.5571 8.40177 14.041 8.76287 13.2858C8.74179 13.4589 8.73171 13.6299 8.73171 13.8049ZM5.32595 12.1976V11.3833C5.78787 11.6164 6.30295 11.7465 6.84461 11.7465C7.38627 11.7465 7.90044 11.6164 8.36327 11.3833V12.1985C8.36327 13.1117 7.68139 13.8549 6.84461 13.8549C6.00875 13.8549 5.3287 13.1148 5.32595 12.2026C5.32595 12.2006 5.32595 12.1996 5.32595 12.1976ZM6.84461 11.0423C5.19581 11.0423 3.85403 9.57795 3.85403 7.77754C3.85403 7.5835 3.70922 7.42547 3.53141 7.42547C3.3032 7.42547 3.11715 7.2234 3.11715 6.97334C3.11715 6.72529 3.3032 6.52225 3.53141 6.52225H4.26737C4.40577 6.52225 4.5295 6.42524 4.57257 6.28221L4.8686 5.31299C5.60915 5.29499 7.90501 5.18196 9.1973 4.4768C9.35677 4.38878 9.42093 4.17771 9.3412 4.00367C9.26146 3.82963 9.06808 3.75961 8.9086 3.84763C7.52192 4.6038 4.66422 4.6138 4.6349 4.6138C4.4965 4.6138 4.37277 4.71087 4.3297 4.8539L4.03458 5.81909H3.5305C3.51491 5.81909 3.49934 5.8191 3.48467 5.8211V4.16271C3.48467 2.8054 4.4965 1.70115 5.7393 1.70115H8.68405C9.06807 1.70115 9.3916 2.00425 9.45209 2.42134C9.46767 2.52737 9.52633 2.61937 9.61248 2.67238C9.97634 2.89643 10.2027 3.31354 10.2027 3.76064V5.8211C10.1871 5.8201 10.1725 5.82013 10.1569 5.82013H9.78845C9.61065 5.82013 9.46584 5.97715 9.46584 6.1722C9.46584 6.36524 9.61065 6.52427 9.78845 6.52427H10.1569C10.3851 6.52427 10.5712 6.7273 10.5712 6.97536C10.5712 7.22542 10.3851 7.42749 10.1569 7.42749C9.97909 7.42749 9.83428 7.58451 9.83428 7.77956C9.83611 9.57897 8.49434 11.0423 6.84461 11.0423ZM9.00758 12.1985V10.9653C9.32836 10.7042 9.60882 10.3902 9.83611 10.0301V10.9583C9.47501 11.3403 9.19363 11.7965 9.00575 12.2966C9.00666 12.2626 9.00758 12.2305 9.00758 12.1985ZM13.8266 20.3314C13.4719 20.8045 12.9385 21.0876 12.3666 21.0876C11.7947 21.0876 11.2613 20.8045 10.9066 20.3314L11.1119 20.2574C11.3942 20.1543 11.5839 19.8673 11.5839 19.5422V19.2621C11.8323 19.3392 12.0953 19.3802 12.3666 19.3802C12.637 19.3802 12.9 19.3392 13.1493 19.2621V19.5422C13.1493 19.8663 13.339 20.1543 13.6213 20.2574L13.8266 20.3314ZM14.9438 15.4623C14.766 15.4623 14.6212 15.6184 14.6212 15.8144V16.1645C14.6212 16.1665 14.6212 16.1704 14.6212 16.1734V16.2165C14.6212 17.5728 13.6094 18.6771 12.3666 18.6771C11.1238 18.6771 10.112 17.5728 10.112 16.2165V15.8154C10.112 15.6203 9.96809 15.4633 9.78937 15.4633H9.42185C9.19363 15.4633 9.00758 15.2602 9.00758 15.0112C9.00758 14.8501 9.08457 14.7051 9.21563 14.6231C9.24496 14.6031 9.27062 14.5801 9.2917 14.5551C10.0882 14.5301 12.67 14.366 14.3674 13.3078C14.5213 13.2108 14.5754 12.9957 14.4874 12.8287C14.3994 12.6596 14.2024 12.6006 14.0484 12.6977C12.5618 13.6239 10.2256 13.8099 9.37602 13.8469V13.8059C9.37602 13.1527 9.55749 12.5186 9.88652 11.9845C9.91219 12.0295 9.9461 12.0675 9.98917 12.0955C10.0405 12.1306 10.0992 12.1485 10.1587 12.1485C10.2082 12.1485 10.2568 12.1365 10.3026 12.1115L12.3675 10.9853L14.4324 12.1115C14.4773 12.1365 14.5277 12.1485 14.5763 12.1485C14.635 12.1485 14.6936 12.1306 14.7459 12.0955C14.788 12.0675 14.8229 12.0295 14.8485 11.9845C15.1776 12.5186 15.359 13.1527 15.359 13.8059V14.319C15.359 14.444 15.4204 14.5601 15.5194 14.6241C15.6496 14.7062 15.7275 14.8512 15.7275 15.0122C15.7275 15.2613 15.5414 15.4643 15.3132 15.4643H14.9438V15.4623ZM17.5211 17.4707C16.6284 17.4707 15.8017 16.9746 15.3196 16.1645C15.8998 16.1605 16.3709 15.6434 16.3709 15.0102C16.3709 14.6741 16.2334 14.357 16.0024 14.139V13.8049C16.0024 13.6629 15.996 13.5229 15.9823 13.3828C16.4598 13.6279 16.9812 13.7549 17.522 13.7549C17.9152 13.7549 18.3038 13.6839 18.6722 13.5499V14.064C18.6722 14.5401 18.9334 14.9602 19.3376 15.1362L20.0323 15.4403C19.6978 16.6416 18.6814 17.4707 17.5211 17.4707Z" fill="#333333"/>
<path d="M13.306 16.7466C13.1685 16.6236 12.965 16.6466 12.8532 16.7976C12.7231 16.9736 12.5498 17.0686 12.3674 17.0686C12.1841 17.0686 12.0118 16.9726 11.8817 16.7976C11.769 16.6476 11.5664 16.6236 11.428 16.7466C11.2896 16.8686 11.2685 17.0906 11.3804 17.2406C11.6315 17.5786 11.9917 17.7716 12.3674 17.7716C12.7432 17.7716 13.1025 17.5786 13.3536 17.2406C13.4654 17.0896 13.4443 16.8686 13.306 16.7466Z" fill="#333333"/>
<path d="M13.306 16.7466C13.1685 16.6236 12.965 16.6466 12.8532 16.7976C12.7231 16.9736 12.5498 17.0686 12.3674 17.0686C12.1841 17.0686 12.0118 16.9726 11.8817 16.7976C11.769 16.6476 11.5664 16.6236 11.428 16.7466C11.2896 16.8686 11.2685 17.0906 11.3804 17.2406C11.6315 17.5786 11.9917 17.7716 12.3674 17.7716C12.7432 17.7716 13.1025 17.5786 13.3536 17.2406C13.4654 17.0896 13.4443 16.8686 13.306 16.7466Z" fill="#333333"/>
<path d="M11.2684 15.7652C11.4462 15.7652 11.591 15.6072 11.591 15.4132C11.591 15.2192 11.4471 15.0612 11.2684 15.0612C11.0897 15.0612 10.9458 15.2182 10.9458 15.4132C10.9458 15.6072 11.0897 15.7652 11.2684 15.7652Z" fill="#333333"/>
<path d="M11.2684 15.7652C11.4462 15.7652 11.591 15.6072 11.591 15.4132C11.591 15.2192 11.4471 15.0612 11.2684 15.0612C11.0897 15.0612 10.9458 15.2182 10.9458 15.4132C10.9458 15.6072 11.0897 15.7652 11.2684 15.7652Z" fill="#333333"/>
<path d="M13.4593 15.7652C13.6371 15.7652 13.7819 15.6072 13.7819 15.4132C13.7819 15.2192 13.638 15.0612 13.4593 15.0612C13.2806 15.0612 13.1367 15.2182 13.1367 15.4132C13.1376 15.6072 13.2815 15.7652 13.4593 15.7652Z" fill="#333333"/>
</svg>
