<svg width="30" height="26" viewBox="0 0 30 26" fill="none" xmlns="http://www.w3.org/2000/svg">
<path d="M25 16L21.4545 12.4545H13.1818C12.8684 12.4545 12.5678 12.33 12.3461 12.1084C12.1245 11.8868 12 11.5862 12 11.2727V4.18182C12 3.86838 12.1245 3.56778 12.3461 3.34615C12.5678 3.12451 12.8684 3 13.1818 3H23.8182C24.1316 3 24.4322 3.12451 24.6539 3.34615C24.8755 3.56778 25 3.86838 25 4.18182V16Z" stroke="#8A8A8F" stroke-linecap="round" stroke-linejoin="round"/>
<path d="M18 15.9091V18.2727C18 18.5862 17.8755 18.8868 17.6539 19.1084C17.4322 19.33 17.1316 19.4545 16.8182 19.4545H8.54545L5 23V11.1818C5 10.8684 5.12451 10.5678 5.34615 10.3461C5.56778 10.1245 5.86838 10 6.18182 10H8.54545" stroke="#8A8A8F" stroke-linecap="round" stroke-linejoin="round"/>
</svg>
