<svg width="24" height="24" viewBox="0 0 24 24" fill="none" xmlns="http://www.w3.org/2000/svg">
<path d="M5.31891 14.5035L4.4835 17.6222L1.43011 17.6867C0.517594 15.9942 0 14.0578 0 12C0 10.0101 0.483938 8.13357 1.34175 6.48128H1.34241L4.06078 6.97965L5.25159 9.68172C5.00236 10.4083 4.86652 11.1883 4.86652 12C4.86661 12.8808 5.02617 13.7248 5.31891 14.5035Z" fill="white"/>
<path d="M23.7902 9.7583C23.928 10.4842 23.9999 11.2339 23.9999 12.0001C23.9999 12.8592 23.9095 13.6972 23.7375 14.5056C23.1533 17.2563 21.6269 19.6583 19.5124 21.3581L19.5118 21.3574L16.0878 21.1827L15.6032 18.1576C17.0063 17.3348 18.1028 16.0471 18.6804 14.5056H12.2637V9.7583H18.774H23.7902Z" fill="white"/>
<path d="M19.5117 21.3573L19.5123 21.358C17.4559 23.0109 14.8435 24 11.9998 24C7.42993 24 3.45676 21.4457 1.42993 17.6868L5.31873 14.5035C6.33212 17.2081 8.94113 19.1334 11.9998 19.1334C13.3145 19.1334 14.5462 18.778 15.6031 18.1576L19.5117 21.3573Z" fill="white"/>
<path d="M19.6596 2.76262L15.7721 5.94525C14.6783 5.26153 13.3853 4.86656 12 4.86656C8.87213 4.86656 6.21431 6.88017 5.25169 9.68175L1.34245 6.48131H1.3418C3.33895 2.63077 7.36223 0 12 0C14.9117 0 17.5814 1.03716 19.6596 2.76262Z" fill="white"/>
</svg>
