<svg xmlns="http://www.w3.org/2000/svg" width="24" height="24" fill="none" viewBox="0 0 24 24">
    <path stroke="#333" stroke-linecap="round" stroke-linejoin="round" d="M12 21c4.97 0 9-4.03 9-9s-4.03-9-9-9-9 4.03-9 9 4.03 9 9 9zM12 17v.01"/>
    <path stroke="#333" stroke-linecap="round" stroke-linejoin="round" d="M12 13.5c-.018-.325.07-.646.25-.917.18-.27.443-.475.75-.583.376-.144.713-.373.986-.669.272-.296.472-.652.583-1.038.112-.387.132-.794.06-1.19-.073-.396-.236-.77-.478-1.091-.241-.322-.554-.584-.914-.764-.36-.18-.756-.275-1.159-.276-.402-.002-.8.09-1.16.27-.36.178-.675.437-.918.758"/>
</svg>
