<svg xmlns="http://www.w3.org/2000/svg" width="16" height="16" fill="none" viewBox="0 0 16 16">
    <path fill="#333" d="M9.406 8c0 .777-.63 1.406-1.406 1.406-.777 0-1.406-.63-1.406-1.406 0-.777.63-1.406 1.406-1.406.777 0 1.406.63 1.406 1.406z"/>
    <path fill="#333" d="M10.375 3.75h-4.75c-1.034 0-1.875.841-1.875 1.875v4.75c0 1.034.841 1.875 1.875 1.875h4.75c1.034 0 1.875-.841 1.875-1.875v-4.75c0-1.034-.841-1.875-1.875-1.875zM8 10.344c-1.292 0-2.344-1.052-2.344-2.344 0-1.292 1.052-2.344 2.344-2.344 1.292 0 2.344 1.052 2.344 2.344 0 1.292-1.052 2.344-2.344 2.344zm2.688-4.563c-.26 0-.47-.21-.47-.468 0-.26.21-.47.47-.47.258 0 .468.21.468.47 0 .258-.21.468-.469.468z"/>
    <path fill="#333" d="M11.781 0H4.22C1.893 0 0 1.893 0 4.219v7.562C0 14.107 1.893 16 4.219 16h7.562C14.107 16 16 14.107 16 11.781V4.22C16 1.893 14.107 0 11.781 0zm1.406 10.375c0 1.55-1.261 2.813-2.812 2.813h-4.75c-1.55 0-2.813-1.262-2.813-2.813v-4.75c0-1.55 1.262-2.813 2.813-2.813h4.75c1.55 0 2.813 1.262 2.813 2.813v4.75z"/>
</svg>
