<svg xmlns="http://www.w3.org/2000/svg" width="24" height="24" fill="none" viewBox="0 0 24 24">
    <path stroke="#333" stroke-linecap="round" stroke-linejoin="round" d="M9 12l2 2 4-4"/>
    <path stroke="#333" stroke-linecap="round" stroke-linejoin="round" d="M12 3c2.336 2.067 5.384 3.143 8.5 3 .453 1.543.592 3.161.408 4.76-.184 1.597-.688 3.141-1.48 4.54-.794 1.4-1.86 2.625-3.136 3.604-1.276.98-2.735 1.692-4.292 2.096-1.557-.404-3.017-1.116-4.293-2.096-1.276-.979-2.342-2.204-3.135-3.604-.792-1.399-1.296-2.943-1.48-4.54C2.907 9.16 3.046 7.542 3.5 6c3.115.143 6.164-.933 8.5-3"/>
</svg>
