<svg width="30" height="26" viewBox="0 0 30 26" fill="none" xmlns="http://www.w3.org/2000/svg">
<path d="M15 3C9.48566 3 5 7.48609 5 13C5 18.5139 9.48566 23 15 23C20.5143 23 25 18.5139 25 13C25 7.48609 20.5143 3 15 3ZM15 22.1667C9.94547 22.1667 5.83332 18.0545 5.83332 13C5.83332 7.94547 9.94547 3.83332 15 3.83332C20.0545 3.83332 24.1667 7.94547 24.1667 13C24.1667 18.0545 20.0545 22.1667 15 22.1667Z" fill="#8A8A8F"/>
<path d="M18.9754 12.6497L13.1421 8.89966C13.0143 8.81626 12.8491 8.81177 12.7173 8.88419C12.583 8.95743 12.5 9.09743 12.5 9.25001V16.75C12.5 16.9026 12.583 17.0426 12.7173 17.1158C12.7791 17.1496 12.8483 17.1667 12.9167 17.1667C12.9948 17.1667 13.0738 17.1447 13.1421 17.1004L18.9754 13.3504C19.0943 13.2739 19.1667 13.1416 19.1667 13C19.1667 12.8584 19.0943 12.7262 18.9754 12.6497ZM13.3333 15.9866V10.0134L17.9793 13L13.3333 15.9866Z" fill="#8A8A8F"/>
</svg>
