<svg xmlns="http://www.w3.org/2000/svg" width="24" height="24" fill="none" viewBox="0 0 24 24">
    <path fill="#333" d="M6.684 16.603c.108-.117.164-.262.164-.44 0-.179-.056-.329-.164-.446-.107-.117-.272-.178-.492-.178h-.755v1.242h.76c.215-.004.38-.06.487-.178z"/>
    <path fill="#333" d="M21.469 5.54L16.242.395c-.07-.07-.169-.113-.272-.113H6.328C4.87.281 3.69 1.528 3.69 3.066V13.34H2.405v6.965h1.284v.628c0 1.533 1.186 2.785 2.64 2.785h12.627c1.458 0 2.64-1.247 2.64-2.785V5.845c0-.112-.043-.225-.127-.304zm-5.63-4.396l4.547 4.481h-2.475c-1.144 0-2.072-.914-2.072-2.034V1.144zm4.96 19.79c0 1.074-.825 1.946-1.843 1.946H6.328c-1.017 0-1.842-.872-1.842-1.946v-.628h8.766c1.71 0 3.093-1.56 3.093-3.483 0-1.921-1.387-3.482-3.093-3.482H4.486V3.066c0-1.074.825-1.946 1.842-1.946h8.714v2.47c0 1.585 1.285 2.874 2.869 2.874h2.887v14.47zM4.847 18.581v-3.515h1.345c.39 0 .694.098.91.3.215.201.328.464.328.792s-.108.595-.328.792c-.22.197-.525.3-.91.3h-.754v1.331h-.591zm3.3 0v-3.515h1.345c.39 0 .694.098.91.3.215.201.328.464.328.792s-.108.595-.328.792c-.22.197-.525.3-.91.3h-.76v1.331h-.585zm3.01-3.042v-.469h2.742v.47H12.81v3.046h-.586v-3.047h-1.069z"/>
    <path fill="#333" d="M9.984 16.603c.108-.117.165-.262.165-.44 0-.179-.057-.329-.165-.446-.107-.117-.271-.178-.492-.178h-.76v1.242h.76c.22-.004.38-.06.492-.178z"/>
</svg>
