<svg xmlns="http://www.w3.org/2000/svg" width="24" height="24" fill="none" viewBox="0 0 24 24">
    <g clip-path="url(#clip0)">
        <path fill="#0D9FEC" d="M22.57 9.86L3.208 1.825c-.816-.339-1.737-.19-2.405.388-.668.578-.947 1.47-.729 2.325l1.724 6.759h8.438c.389 0 .703.315.703.703 0 .388-.314.703-.703.703H1.797l-1.724 6.76c-.218.855.061 1.746.729 2.324.669.58 1.59.726 2.405.389L22.57 14.14C23.452 13.775 24 12.955 24 12c0-.955-.548-1.776-1.43-2.141z"/>
    </g>
    <defs>
        <clipPath id="clip0">
            <path fill="#fff" d="M0 0H24V24H0z"/>
        </clipPath>
    </defs>
</svg>
