<svg xmlns="http://www.w3.org/2000/svg" width="16" height="16" fill="none" viewBox="0 0 16 16">
    <g clip-path="url(#clip0)">
        <path fill="#333" d="M5.97 14.564c-.693 0-1.405-.056-2.121-.169-1.262-.198-2.54-.858-2.901-1.055L0 12.822l1.026-.338c1.122-.369 1.805-.598 2.65-.956-.846-.41-1.498-1.147-1.812-2.1l-.239-.724.196.03c-.186-.188-.332-.377-.446-.55C.971 7.57.757 6.82.802 6.177l.045-.633.38.147c-.16-.302-.276-.624-.344-.962-.165-.824-.027-1.699.39-2.464l.33-.606.441.53C3.44 3.866 5.207 4.86 7.305 5.152c-.085-.591-.021-1.161.191-1.672.248-.595.688-1.1 1.273-1.46.65-.399 1.438-.592 2.218-.544.829.05 1.581.361 2.178.898.292-.076.507-.156.798-.266.175-.066.373-.14.62-.226l.915-.315-.596 1.703c.04-.004.08-.006.122-.008L16 3.217l-.577.789c-.033.045-.041.058-.053.076-.047.07-.104.157-.896 1.214-.199.265-.297.61-.28.971.071 1.374-.098 2.618-.5 3.695-.382 1.02-.972 1.895-1.756 2.6-.969.873-2.205 1.471-3.674 1.777-.72.15-1.494.225-2.295.225z"/>
    </g>
    <defs>
        <clipPath id="clip0">
            <path fill="#fff" d="M0 0H16V16H0z"/>
        </clipPath>
    </defs>
</svg>
