<svg xmlns="http://www.w3.org/2000/svg" width="24" height="24" fill="none" viewBox="0 0 24 24">
    <path stroke="#fff" stroke-linecap="round" stroke-linejoin="round" stroke-width="1.5" d="M17 11H7c-1.105 0-2 .895-2 2v6c0 1.105.895 2 2 2h10c1.105 0 2-.895 2-2v-6c0-1.105-.895-2-2-2z"/>
    <path stroke="#fff" stroke-linecap="round" stroke-linejoin="round" stroke-width="1.5" d="M12 17c.552 0 1-.448 1-1s-.448-1-1-1-1 .448-1 1 .448 1 1 1zM8 11V6c0-1.06.421-2.078 1.172-2.828C9.922 2.422 10.939 2 12 2c1.06 0 2.078.421 2.828 1.172C15.578 3.922 16 4.939 16 6"/>
</svg>
